<?xml version="1.0" encoding="UTF-8"?>
<!DOCTYPE svg PUBLIC "-//W3C//DTD SVG 1.1//EN" "http://www.w3.org/Graphics/SVG/1.1/DTD/svg11.dtd">
<svg xmlns="http://www.w3.org/2000/svg" version="1.1" width="298px" height="370px" style="shape-rendering:geometricPrecision; text-rendering:geometricPrecision; image-rendering:optimizeQuality; fill-rule:evenodd; clip-rule:evenodd" xmlns:xlink="http://www.w3.org/1999/xlink">
<g><path style="opacity:0.004" fill="#00fffe" d="M 280.5,14.5 C 281.833,15.1667 281.833,15.1667 280.5,14.5 Z"/></g>
<g><path style="opacity:0.004" fill="#00fffe" d="M 216.5,38.5 C 217.833,39.1667 217.833,39.1667 216.5,38.5 Z"/></g>
<g><path style="opacity:0.996" fill="#04909d" d="M 63.5,40.5 C 61.2542,38.3511 59.7542,35.6844 59,32.5C 55.9226,36.7365 54.2559,41.4031 54,46.5C 55.0569,44.7806 55.8903,42.9472 56.5,41C 58.1341,40.5065 59.8008,40.3398 61.5,40.5C 61.6427,42.2624 61.3094,43.9291 60.5,45.5C 61.624,46.914 62.624,48.414 63.5,50C 62.8333,50.3333 62.1667,50.6667 61.5,51C 65.7933,49.7441 66.46,50.9107 63.5,54.5C 63.9767,55.4776 64.6433,56.3109 65.5,57C 65.5,58.6667 65.5,60.3333 65.5,62C 66.2567,63.5122 67.2567,64.8455 68.5,66C 67.6198,67.3561 67.2865,68.8561 67.5,70.5C 66.325,70.281 65.325,70.6143 64.5,71.5C 66.162,72.3267 67.4954,73.4933 68.5,75C 66.4873,75.8753 66.4873,77.2087 68.5,79C 66.1088,79.6914 66.1088,80.6914 68.5,82C 67.5,82.3333 66.5,82.6667 65.5,83C 68.0026,84.5494 68.0026,86.2161 65.5,88C 66.2052,89.5565 65.5385,90.7232 63.5,91.5C 63.3233,88.9218 62.1567,88.9218 60,91.5C 58.3499,90.1092 57.8499,88.6092 58.5,87C 56.6667,86.5 55.5,85.3333 55,83.5C 54.8333,84 54.6667,84.5 54.5,85C 57.7438,91.2413 62.0771,96.5746 67.5,101C 67.2716,101.399 66.9382,101.565 66.5,101.5C 62.8537,99.5181 59.8537,96.8515 57.5,93.5C 47.4832,76.691 45.9832,59.3577 53,41.5C 54.1606,37.1698 56.3272,33.5032 59.5,30.5C 61.0329,33.7679 62.3662,37.1012 63.5,40.5 Z"/></g>
<g><path style="opacity:0.008" fill="#007f7e" d="M 72.5,46.5 C 73.8333,47.1667 73.8333,47.1667 72.5,46.5 Z"/></g>
<g><path style="opacity:0.004" fill="#00fffe" d="M 82.5,48.5 C 83.8333,49.1667 83.8333,49.1667 82.5,48.5 Z"/></g>
<g><path style="opacity:0.012" fill="#00aaa9" d="M 76.5,49.5 C 77.8333,50.1667 77.8333,50.1667 76.5,49.5 Z"/></g>
<g><path style="opacity:0.008" fill="#007f7e" d="M 81.5,51.5 C 82.8333,52.1667 82.8333,52.1667 81.5,51.5 Z"/></g>
<g><path style="opacity:0.997" fill="#0299a8" d="M 63.5,40.5 C 67.2631,44.5992 71.5965,47.9325 76.5,50.5C 87.1546,56.3884 98.4879,60.7218 110.5,63.5C 108.019,64.2583 105.352,64.2583 102.5,63.5C 93.9227,59.8853 85.256,56.2186 76.5,52.5C 75.537,52.9698 75.537,53.6365 76.5,54.5C 78.0322,57.5422 77.6989,60.3756 75.5,63C 76.448,63.4828 77.448,63.6495 78.5,63.5C 78.7035,65.3904 78.0368,66.8904 76.5,68C 79.6124,68.8505 79.9458,70.0172 77.5,71.5C 78.6405,72.4255 78.6405,73.2588 77.5,74C 79.9913,74.6259 79.9913,75.4593 77.5,76.5C 79.3845,77.1973 79.7178,78.1973 78.5,79.5C 79.376,80.2508 80.376,80.7508 81.5,81C 81.048,82.6124 79.7147,83.6124 77.5,84C 78.6405,84.7412 78.6405,85.5745 77.5,86.5C 78.0253,87.1924 78.6919,87.6924 79.5,88C 79.1559,90.0811 78.4892,92.4144 77.5,95C 78.4841,96.6565 79.4841,98.3232 80.5,100C 79.552,100.483 78.552,100.649 77.5,100.5C 77.3505,101.552 77.5172,102.552 78,103.5C 78.4226,102.044 79.2559,101.544 80.5,102C 79.1667,102.667 79.1667,103.333 80.5,104C 79.552,104.483 78.552,104.649 77.5,104.5C 76.5,104.5 75.5,104.5 74.5,104.5C 73.1667,104.167 71.8333,103.833 70.5,103.5C 68.6203,103.771 67.287,103.104 66.5,101.5C 66.9382,101.565 67.2716,101.399 67.5,101C 62.0771,96.5746 57.7438,91.2413 54.5,85C 54.6667,84.5 54.8333,84 55,83.5C 55.5,85.3333 56.6667,86.5 58.5,87C 57.8499,88.6092 58.3499,90.1092 60,91.5C 62.1567,88.9218 63.3233,88.9218 63.5,91.5C 65.5385,90.7232 66.2052,89.5565 65.5,88C 68.0026,86.2161 68.0026,84.5494 65.5,83C 66.5,82.6667 67.5,82.3333 68.5,82C 66.1088,80.6914 66.1088,79.6914 68.5,79C 66.4873,77.2087 66.4873,75.8753 68.5,75C 67.4954,73.4933 66.162,72.3267 64.5,71.5C 65.325,70.6143 66.325,70.281 67.5,70.5C 67.2865,68.8561 67.6198,67.3561 68.5,66C 67.2567,64.8455 66.2567,63.5122 65.5,62C 65.5,60.3333 65.5,58.6667 65.5,57C 64.6433,56.3109 63.9767,55.4776 63.5,54.5C 66.46,50.9107 65.7933,49.7441 61.5,51C 62.1667,50.6667 62.8333,50.3333 63.5,50C 62.624,48.414 61.624,46.914 60.5,45.5C 61.3094,43.9291 61.6427,42.2624 61.5,40.5C 59.8008,40.3398 58.1341,40.5065 56.5,41C 55.8903,42.9472 55.0569,44.7806 54,46.5C 54.2559,41.4031 55.9226,36.7365 59,32.5C 59.7542,35.6844 61.2542,38.3511 63.5,40.5 Z"/></g>
<g><path style="opacity:0.996" fill="#009faf" d="M 76.5,54.5 C 80.2938,55.9825 83.9605,57.6491 87.5,59.5C 84.7582,60.5578 84.0915,62.3911 85.5,65C 84.8333,66.3333 84.1667,67.6667 83.5,69C 85.4928,69.6468 87.1594,71.3134 88.5,74C 86.1088,75.3086 86.1088,76.3086 88.5,77C 87.8333,77.3333 87.1667,77.6667 86.5,78C 87.13,79.892 88.13,81.5587 89.5,83C 87.4746,84.194 87.1413,85.694 88.5,87.5C 86.2524,88.324 86.0858,89.324 88,90.5C 88.7175,89.5494 89.5509,89.3828 90.5,90C 89.6721,90.9147 88.6721,91.5814 87.5,92C 88.0966,93.6282 87.7633,95.2949 86.5,97C 87.1258,97.7504 87.6258,98.5838 88,99.5C 88.9138,98.3463 89.7471,98.513 90.5,100C 88.3241,101.677 86.3241,103.511 84.5,105.5C 82.1363,105.564 79.803,105.231 77.5,104.5C 78.552,104.649 79.552,104.483 80.5,104C 79.1667,103.333 79.1667,102.667 80.5,102C 79.2559,101.544 78.4226,102.044 78,103.5C 77.5172,102.552 77.3505,101.552 77.5,100.5C 78.552,100.649 79.552,100.483 80.5,100C 79.4841,98.3232 78.4841,96.6565 77.5,95C 78.4892,92.4144 79.1559,90.0811 79.5,88C 78.6919,87.6924 78.0253,87.1924 77.5,86.5C 78.6405,85.5745 78.6405,84.7412 77.5,84C 79.7147,83.6124 81.048,82.6124 81.5,81C 80.376,80.7508 79.376,80.2508 78.5,79.5C 79.7178,78.1973 79.3845,77.1973 77.5,76.5C 79.9913,75.4593 79.9913,74.6259 77.5,74C 78.6405,73.2588 78.6405,72.4255 77.5,71.5C 79.9458,70.0172 79.6124,68.8505 76.5,68C 78.0368,66.8904 78.7035,65.3904 78.5,63.5C 77.448,63.6495 76.448,63.4828 75.5,63C 77.6989,60.3756 78.0322,57.5422 76.5,54.5 Z"/></g>
<g><path style="opacity:0.996" fill="#00abba" d="M 102.5,63.5 C 103.398,64.1577 104.398,64.8243 105.5,65.5C 104.289,66.7202 104.289,67.8869 105.5,69C 102.833,70.3333 102.833,71.6667 105.5,73C 104.833,73.3333 104.167,73.6667 103.5,74C 106.624,76.5357 107.624,79.7023 106.5,83.5C 108.895,86.5508 108.562,88.5508 105.5,89.5C 107.878,92.0239 107.545,93.3573 104.5,93.5C 105.642,95.3785 106.642,97.2118 107.5,99C 106.013,102.499 107.013,103.833 110.5,103C 109.87,104.892 108.87,106.559 107.5,108C 108.731,109.183 108.731,110.349 107.5,111.5C 105.53,110.557 104.03,111.224 103,113.5C 101.644,112.62 100.144,112.286 98.5,112.5C 91.627,111.871 85.2937,109.871 79.5,106.5C 85.7089,108.514 92.0422,110.014 98.5,111C 96.0426,109.846 96.0426,108.512 98.5,107C 97.6433,106.311 96.9767,105.478 96.5,104.5C 97.8333,103.5 97.8333,102.5 96.5,101.5C 96.9767,100.522 97.6433,99.6891 98.5,99C 96.3278,96.5073 95.4944,93.6739 96,90.5C 96.2492,91.624 96.7492,92.624 97.5,93.5C 97.8333,93.3333 98.1667,93.1667 98.5,93C 97.8693,89.5407 96.2026,86.7074 93.5,84.5C 93.8457,83.3044 94.3457,83.3044 95,84.5C 95.658,82.892 95.158,81.7253 93.5,81C 95.8329,79.7574 96.4996,78.0907 95.5,76C 97.7811,74.149 97.7811,72.4823 95.5,71C 98.059,64.0307 95.3923,60.1974 87.5,59.5C 83.9605,57.6491 80.2938,55.9825 76.5,54.5C 75.537,53.6365 75.537,52.9698 76.5,52.5C 85.256,56.2186 93.9227,59.8853 102.5,63.5 Z"/></g>
<g><path style="opacity:0.995" fill="#03b1bd" d="M 102.5,63.5 C 105.352,64.2583 108.019,64.2583 110.5,63.5C 129.017,68.3717 147.017,73.0384 164.5,77.5C 164.265,78.0967 163.765,78.4301 163,78.5C 159.598,77.2741 156.098,76.6074 152.5,76.5C 148.736,75.0085 144.736,74.0085 140.5,73.5C 131.779,70.3871 122.779,68.2205 113.5,67C 119.581,69.4348 125.581,71.1015 131.5,72C 129.167,72.3333 126.833,72.6667 124.5,73C 124.833,73.3333 125.167,73.6667 125.5,74C 124.062,74.2189 122.729,74.7189 121.5,75.5C 122.902,76.8425 122.569,77.6758 120.5,78C 122.513,79.7913 122.513,81.1247 120.5,82C 121.5,83 122.5,84 123.5,85C 121.905,84.3829 120.572,84.7163 119.5,86C 120.479,87.7785 120.146,89.4452 118.5,91C 119.449,91.6172 120.282,91.4506 121,90.5C 122.368,91.9931 122.535,93.4931 121.5,95C 122.649,96.7441 123.983,96.9108 125.5,95.5C 126.482,99.5946 125.316,100.261 122,97.5C 121.833,97.8333 121.667,98.1667 121.5,98.5C 122.383,99.548 123.05,100.715 123.5,102C 123.112,104.474 123.112,106.807 123.5,109C 123.05,110.285 122.383,111.452 121.5,112.5C 121.709,113.086 122.043,113.586 122.5,114C 121.258,114.311 120.258,113.811 119.5,112.5C 119.891,113.718 119.224,114.552 117.5,115C 120.063,115.763 120.063,116.263 117.5,116.5C 115.388,115.502 114.388,114.169 114.5,112.5C 113.614,113.325 113.281,114.325 113.5,115.5C 110.959,114.897 108.626,114.897 106.5,115.5C 103.514,115.097 100.848,114.097 98.5,112.5C 100.144,112.286 101.644,112.62 103,113.5C 104.03,111.224 105.53,110.557 107.5,111.5C 108.731,110.349 108.731,109.183 107.5,108C 108.87,106.559 109.87,104.892 110.5,103C 107.013,103.833 106.013,102.499 107.5,99C 106.642,97.2118 105.642,95.3785 104.5,93.5C 107.545,93.3573 107.878,92.0239 105.5,89.5C 108.562,88.5508 108.895,86.5508 106.5,83.5C 107.624,79.7023 106.624,76.5357 103.5,74C 104.167,73.6667 104.833,73.3333 105.5,73C 102.833,71.6667 102.833,70.3333 105.5,69C 104.289,67.8869 104.289,66.7202 105.5,65.5C 104.398,64.8243 103.398,64.1577 102.5,63.5 Z"/></g>
<g><path style="opacity:0.004" fill="#00d2d2" d="M 126.5,64.5 C 127.525,64.8966 127.692,65.5632 127,66.5C 126.536,65.9056 126.369,65.2389 126.5,64.5 Z"/></g>
<g><path style="opacity:0.004" fill="#00fffe" d="M 129.5,66.5 C 130.833,67.1667 130.833,67.1667 129.5,66.5 Z"/></g>
<g><path style="opacity:0.004" fill="#00fffe" d="M 16.5,70.5 C 17.8333,71.1667 17.8333,71.1667 16.5,70.5 Z"/></g>
<g><path style="opacity:0.008" fill="#007f7e" d="M 47.5,70.5 C 48.8333,71.1667 48.8333,71.1667 47.5,70.5 Z"/></g>
<g><path style="opacity:0.996" fill="#00a5b4" d="M 87.5,59.5 C 95.3923,60.1974 98.059,64.0307 95.5,71C 97.7811,72.4823 97.7811,74.149 95.5,76C 96.4996,78.0907 95.8329,79.7574 93.5,81C 95.158,81.7253 95.658,82.892 95,84.5C 94.3457,83.3044 93.8457,83.3044 93.5,84.5C 96.2026,86.7074 97.8693,89.5407 98.5,93C 98.1667,93.1667 97.8333,93.3333 97.5,93.5C 96.7492,92.624 96.2492,91.624 96,90.5C 95.4944,93.6739 96.3278,96.5073 98.5,99C 97.6433,99.6891 96.9767,100.522 96.5,101.5C 97.8333,102.5 97.8333,103.5 96.5,104.5C 96.9767,105.478 97.6433,106.311 98.5,107C 96.0426,108.512 96.0426,109.846 98.5,111C 92.0422,110.014 85.7089,108.514 79.5,106.5C 77.4471,106.598 75.7804,105.931 74.5,104.5C 75.5,104.5 76.5,104.5 77.5,104.5C 79.803,105.231 82.1363,105.564 84.5,105.5C 86.3241,103.511 88.3241,101.677 90.5,100C 89.7471,98.513 88.9138,98.3463 88,99.5C 87.6258,98.5838 87.1258,97.7504 86.5,97C 87.7633,95.2949 88.0966,93.6282 87.5,92C 88.6721,91.5814 89.6721,90.9147 90.5,90C 89.5509,89.3828 88.7175,89.5494 88,90.5C 86.0858,89.324 86.2524,88.324 88.5,87.5C 87.1413,85.694 87.4746,84.194 89.5,83C 88.13,81.5587 87.13,79.892 86.5,78C 87.1667,77.6667 87.8333,77.3333 88.5,77C 86.1088,76.3086 86.1088,75.3086 88.5,74C 87.1594,71.3134 85.4928,69.6468 83.5,69C 84.1667,67.6667 84.8333,66.3333 85.5,65C 84.0915,62.3911 84.7582,60.5578 87.5,59.5 Z"/></g>
<g><path style="opacity:0.996" fill="#02b8c4" d="M 140.5,73.5 C 141.37,75.0319 141.036,76.5319 139.5,78C 143.452,79.0746 144.952,81.5746 144,85.5C 143.417,83.9984 142.584,82.6651 141.5,81.5C 140.406,82.868 140.74,84.0347 142.5,85C 141.695,86.9717 140.361,88.4717 138.5,89.5C 138.846,90.6956 139.346,90.6956 140,89.5C 142.015,91.4731 141.848,93.1397 139.5,94.5C 140.145,96.4321 141.479,97.5988 143.5,98C 142.54,99.4194 141.707,100.919 141,102.5C 140.346,101.304 139.846,101.304 139.5,102.5C 140.376,103.251 141.376,103.751 142.5,104C 141.542,105.147 141.875,106.147 143.5,107C 142.692,107.308 142.025,107.808 141.5,108.5C 142.5,109.333 143.5,110.167 144.5,111C 143.422,111.674 142.755,112.674 142.5,114C 142.834,116.175 143.834,118.008 145.5,119.5C 140.544,120.494 135.544,120.827 130.5,120.5C 122.364,119.466 114.364,117.799 106.5,115.5C 108.626,114.897 110.959,114.897 113.5,115.5C 113.281,114.325 113.614,113.325 114.5,112.5C 114.388,114.169 115.388,115.502 117.5,116.5C 120.063,116.263 120.063,115.763 117.5,115C 119.224,114.552 119.891,113.718 119.5,112.5C 120.258,113.811 121.258,114.311 122.5,114C 122.043,113.586 121.709,113.086 121.5,112.5C 122.383,111.452 123.05,110.285 123.5,109C 123.112,106.807 123.112,104.474 123.5,102C 123.05,100.715 122.383,99.548 121.5,98.5C 121.667,98.1667 121.833,97.8333 122,97.5C 125.316,100.261 126.482,99.5946 125.5,95.5C 123.983,96.9108 122.649,96.7441 121.5,95C 122.535,93.4931 122.368,91.9931 121,90.5C 120.282,91.4506 119.449,91.6172 118.5,91C 120.146,89.4452 120.479,87.7785 119.5,86C 120.572,84.7163 121.905,84.3829 123.5,85C 122.5,84 121.5,83 120.5,82C 122.513,81.1247 122.513,79.7913 120.5,78C 122.569,77.6758 122.902,76.8425 121.5,75.5C 122.729,74.7189 124.062,74.2189 125.5,74C 125.167,73.6667 124.833,73.3333 124.5,73C 126.833,72.6667 129.167,72.3333 131.5,72C 125.581,71.1015 119.581,69.4348 113.5,67C 122.779,68.2205 131.779,70.3871 140.5,73.5 Z"/></g>
<g><path style="opacity:0.008" fill="#007f7e" d="M 152.5,72.5 C 153.833,73.1667 153.833,73.1667 152.5,72.5 Z"/></g>
<g><path style="opacity:0.004" fill="#00fffe" d="M 161.5,73.5 C 162.833,74.1667 162.833,74.1667 161.5,73.5 Z"/></g>
<g><path style="opacity:0.004" fill="#00fffe" d="M 161.5,74.5 C 160.833,75.1667 160.833,75.1667 161.5,74.5 Z"/></g>
<g><path style="opacity:0.995" fill="#09bdc6" d="M 140.5,73.5 C 144.736,74.0085 148.736,75.0085 152.5,76.5C 155.824,78.7393 159.491,80.0726 163.5,80.5C 161.876,80.3601 160.71,81.0267 160,82.5C 158.984,81.3659 158.317,81.6992 158,83.5C 157.667,83.1667 157.333,82.8333 157,82.5C 154.978,84.9688 155.145,87.1354 157.5,89C 155.913,89.8624 154.246,90.5291 152.5,91C 153.833,92.3333 153.833,93.6667 152.5,95C 154.058,98.1129 155.891,98.2796 158,95.5C 158.5,96.6667 159.333,97.5 160.5,98C 158.817,100.014 156.817,101.68 154.5,103C 155.563,104.188 156.897,104.688 158.5,104.5C 158.649,105.552 158.483,106.552 158,107.5C 157.346,106.304 156.846,106.304 156.5,107.5C 157.192,110.123 158.692,112.123 161,113.5C 161.944,116.347 161.444,118.847 159.5,121C 160.167,121.333 160.833,121.667 161.5,122C 160.035,123.774 158.702,125.608 157.5,127.5C 148.321,125.536 139.321,123.202 130.5,120.5C 135.544,120.827 140.544,120.494 145.5,119.5C 143.834,118.008 142.834,116.175 142.5,114C 142.755,112.674 143.422,111.674 144.5,111C 143.5,110.167 142.5,109.333 141.5,108.5C 142.025,107.808 142.692,107.308 143.5,107C 141.875,106.147 141.542,105.147 142.5,104C 141.376,103.751 140.376,103.251 139.5,102.5C 139.846,101.304 140.346,101.304 141,102.5C 141.707,100.919 142.54,99.4194 143.5,98C 141.479,97.5988 140.145,96.4321 139.5,94.5C 141.848,93.1397 142.015,91.4731 140,89.5C 139.346,90.6956 138.846,90.6956 138.5,89.5C 140.361,88.4717 141.695,86.9717 142.5,85C 140.74,84.0347 140.406,82.868 141.5,81.5C 142.584,82.6651 143.417,83.9984 144,85.5C 144.952,81.5746 143.452,79.0746 139.5,78C 141.036,76.5319 141.37,75.0319 140.5,73.5 Z"/></g>
<g><path style="opacity:0.004" fill="#00fffe" d="M 166.5,75.5 C 167.833,76.1667 167.833,76.1667 166.5,75.5 Z"/></g>
<g><path style="opacity:0.996" fill="#15c3c5" d="M 152.5,76.5 C 156.098,76.6074 159.598,77.2741 163,78.5C 163.765,78.4301 164.265,78.0967 164.5,77.5C 165.791,77.2627 166.791,77.596 167.5,78.5C 167.062,78.4346 166.728,78.6012 166.5,79C 171.507,80.2254 176.507,81.5588 181.5,83C 180.655,84.5581 181.321,85.5581 183.5,86C 182.542,87.1475 182.875,88.1475 184.5,89C 183.313,90.0195 182.313,91.1861 181.5,92.5C 182.529,92.2964 183.529,92.7964 184.5,94C 183.572,94.3879 182.905,95.0546 182.5,96C 183.199,100.471 184.532,104.637 186.5,108.5C 185.689,109.216 185.022,110.05 184.5,111C 185.044,113.4 185.711,115.733 186.5,118C 186.043,118.414 185.709,118.914 185.5,119.5C 186.711,120.874 187.711,122.374 188.5,124C 188.095,124.945 187.428,125.612 186.5,126C 187.672,126.419 188.672,127.085 189.5,128C 188.353,130.178 186.687,131.678 184.5,132.5C 181.978,131.911 179.478,131.245 177,130.5C 175.97,130.164 175.47,129.497 175.5,128.5C 174.77,126.955 173.437,126.122 171.5,126C 171.833,125.667 172.167,125.333 172.5,125C 168.867,122.811 168.534,120.144 171.5,117C 169.044,114.841 169.71,114.008 173.5,114.5C 173.413,117.598 173.913,117.932 175,115.5C 175.333,116.167 175.667,116.833 176,117.5C 177.128,115.655 177.628,113.655 177.5,111.5C 174.834,111.934 173.667,110.934 174,108.5C 177.207,111.15 177.707,110.984 175.5,108C 176.167,107.667 176.833,107.333 177.5,107C 175.975,105.991 174.308,105.491 172.5,105.5C 172.66,107.199 172.494,108.866 172,110.5C 169.078,107.739 168.578,104.906 170.5,102C 170.095,101.055 169.428,100.388 168.5,100C 169.206,96.8688 169.873,93.7021 170.5,90.5C 169.471,90.7036 168.471,90.2036 167.5,89C 168.833,87 170.5,85.3333 172.5,84C 170.699,83.6827 170.366,83.016 171.5,82C 168.883,81.1785 166.216,80.6785 163.5,80.5C 159.491,80.0726 155.824,78.7393 152.5,76.5 Z"/></g>
<g><path style="opacity:0.004" fill="#00fffe" d="M 198.5,83.5 C 199.833,84.1667 199.833,84.1667 198.5,83.5 Z"/></g>
<g><path style="opacity:0.997" fill="#1bc4c3" d="M 167.5,78.5 C 173.594,79.5242 179.594,80.8575 185.5,82.5C 184.737,83.2679 183.737,83.7679 182.5,84C 186.511,85.3353 190.511,86.6686 194.5,88C 193.167,88.3333 191.833,88.6667 190.5,89C 195.303,91.4694 195.636,93.4694 191.5,95C 193.883,95.065 194.55,95.8983 193.5,97.5C 195.796,101.931 198.463,106.097 201.5,110C 200.5,110.333 199.5,110.667 198.5,111C 200.439,111.908 201.439,113.408 201.5,115.5C 200.448,115.351 199.448,115.517 198.5,116C 200.044,116.29 201.377,116.956 202.5,118C 201.075,119.362 200.242,120.862 200,122.5C 201.635,121.151 203.135,121.318 204.5,123C 203.87,124.892 202.87,126.559 201.5,128C 202.5,129.667 203.5,131.333 204.5,133C 204.31,134.828 203.977,136.662 203.5,138.5C 201.883,137.962 200.216,137.629 198.5,137.5C 195.727,136.343 192.727,135.676 189.5,135.5C 182.044,133.134 174.377,131.134 166.5,129.5C 169.414,128.18 172.414,127.847 175.5,128.5C 175.47,129.497 175.97,130.164 177,130.5C 179.478,131.245 181.978,131.911 184.5,132.5C 186.687,131.678 188.353,130.178 189.5,128C 188.672,127.085 187.672,126.419 186.5,126C 187.428,125.612 188.095,124.945 188.5,124C 187.711,122.374 186.711,120.874 185.5,119.5C 185.709,118.914 186.043,118.414 186.5,118C 185.711,115.733 185.044,113.4 184.5,111C 185.022,110.05 185.689,109.216 186.5,108.5C 184.532,104.637 183.199,100.471 182.5,96C 182.905,95.0546 183.572,94.3879 184.5,94C 183.529,92.7964 182.529,92.2964 181.5,92.5C 182.313,91.1861 183.313,90.0195 184.5,89C 182.875,88.1475 182.542,87.1475 183.5,86C 181.321,85.5581 180.655,84.5581 181.5,83C 176.507,81.5588 171.507,80.2254 166.5,79C 166.728,78.6012 167.062,78.4346 167.5,78.5 Z"/></g>
<g><path style="opacity:0.012" fill="#55aaa9" d="M 213.5,88.5 C 214.833,89.1667 214.833,89.1667 213.5,88.5 Z"/></g>
<g><path style="opacity:0.004" fill="#00fffe" d="M 226.5,92.5 C 227.833,93.1667 227.833,93.1667 226.5,92.5 Z"/></g>
<g><path style="opacity:0.004" fill="#00fffe" d="M 57.5,93.5 C 56.8333,94.1667 56.8333,94.1667 57.5,93.5 Z"/></g>
<g><path style="opacity:0.997" fill="#28c9c2" d="M 214.5,91.5 C 218.469,92.8266 221.802,95.16 224.5,98.5C 220.639,99.5976 220.639,100.431 224.5,101C 224.167,101.333 223.833,101.667 223.5,102C 224.357,102.689 225.023,103.522 225.5,104.5C 223.958,104.694 222.625,105.861 221.5,108C 222.357,108.689 223.023,109.522 223.5,110.5C 223.167,111.833 222.833,113.167 222.5,114.5C 223.355,115.293 224.189,114.96 225,113.5C 225.617,114.449 225.451,115.282 224.5,116C 225.883,118.123 227.55,119.123 229.5,119C 225.257,120.458 224.59,122.791 227.5,126C 226.158,128.499 224.992,128.665 224,126.5C 222.173,128.414 222.173,130.414 224,132.5C 224.667,133.833 225.333,133.833 226,132.5C 227.487,133.253 227.654,134.086 226.5,135C 227.094,135.464 227.761,135.631 228.5,135.5C 227.402,136.397 227.402,137.23 228.5,138C 225.085,139.143 224.751,140.81 227.5,143C 225.389,143.845 223.389,144.678 221.5,145.5C 218.672,144.345 216.005,143.011 213.5,141.5C 215.485,139.576 217.485,137.576 219.5,135.5C 217.384,133.428 215.384,131.262 213.5,129C 214.167,128.667 214.833,128.333 215.5,128C 214.484,127.481 213.818,126.647 213.5,125.5C 213.807,122.38 215.141,119.88 217.5,118C 216.167,117.333 214.833,116.667 213.5,116C 214.357,115.311 215.023,114.478 215.5,113.5C 214.307,111.473 212.64,109.973 210.5,109C 214.116,108.653 214.783,107.486 212.5,105.5C 214.991,104.459 214.991,103.626 212.5,103C 213.328,102.085 214.328,101.419 215.5,101C 213.956,100.71 212.623,100.044 211.5,99C 212.167,98.6667 212.833,98.3333 213.5,98C 212.377,96.9563 211.044,96.2896 209.5,96C 210.167,95.6667 210.833,95.3333 211.5,95C 210.167,93.6667 208.833,92.3333 207.5,91C 209.797,90.9822 212.131,91.1489 214.5,91.5 Z"/></g>
<g><path style="opacity:0.996" fill="#0fc0c5" d="M 163.5,80.5 C 166.216,80.6785 168.883,81.1785 171.5,82C 170.366,83.016 170.699,83.6827 172.5,84C 170.5,85.3333 168.833,87 167.5,89C 168.471,90.2036 169.471,90.7036 170.5,90.5C 169.873,93.7021 169.206,96.8688 168.5,100C 169.428,100.388 170.095,101.055 170.5,102C 168.578,104.906 169.078,107.739 172,110.5C 172.494,108.866 172.66,107.199 172.5,105.5C 174.308,105.491 175.975,105.991 177.5,107C 176.833,107.333 176.167,107.667 175.5,108C 177.707,110.984 177.207,111.15 174,108.5C 173.667,110.934 174.834,111.934 177.5,111.5C 177.628,113.655 177.128,115.655 176,117.5C 175.667,116.833 175.333,116.167 175,115.5C 173.913,117.932 173.413,117.598 173.5,114.5C 169.71,114.008 169.044,114.841 171.5,117C 168.534,120.144 168.867,122.811 172.5,125C 172.167,125.333 171.833,125.667 171.5,126C 173.437,126.122 174.77,126.955 175.5,128.5C 172.414,127.847 169.414,128.18 166.5,129.5C 163.598,128.422 160.598,127.756 157.5,127.5C 158.702,125.608 160.035,123.774 161.5,122C 160.833,121.667 160.167,121.333 159.5,121C 161.444,118.847 161.944,116.347 161,113.5C 158.692,112.123 157.192,110.123 156.5,107.5C 156.846,106.304 157.346,106.304 158,107.5C 158.483,106.552 158.649,105.552 158.5,104.5C 156.897,104.688 155.563,104.188 154.5,103C 156.817,101.68 158.817,100.014 160.5,98C 159.333,97.5 158.5,96.6667 158,95.5C 155.891,98.2796 154.058,98.1129 152.5,95C 153.833,93.6667 153.833,92.3333 152.5,91C 154.246,90.5291 155.913,89.8624 157.5,89C 155.145,87.1354 154.978,84.9688 157,82.5C 157.333,82.8333 157.667,83.1667 158,83.5C 158.317,81.6992 158.984,81.3659 160,82.5C 160.71,81.0267 161.876,80.3601 163.5,80.5 Z"/></g>
<g><path style="opacity:0.008" fill="#7ffffe" d="M 238.5,99.5 C 239.833,100.167 239.833,100.167 238.5,99.5 Z"/></g>
<g><path style="opacity:0.004" fill="#00fffe" d="M 248.5,107.5 C 249.833,108.167 249.833,108.167 248.5,107.5 Z"/></g>
<g><path style="opacity:0.016" fill="#00bfbe" d="M 80.5,110.5 C 81.8333,111.167 81.8333,111.167 80.5,110.5 Z"/></g>
<g><path style="opacity:0.004" fill="#00fffe" d="M 82.5,111.5 C 83.8333,112.167 83.8333,112.167 82.5,111.5 Z"/></g>
<g><path style="opacity:0.996" fill="#22c6c2" d="M 185.5,82.5 C 195.615,84.4389 205.282,87.4389 214.5,91.5C 212.131,91.1489 209.797,90.9822 207.5,91C 208.833,92.3333 210.167,93.6667 211.5,95C 210.833,95.3333 210.167,95.6667 209.5,96C 211.044,96.2896 212.377,96.9563 213.5,98C 212.833,98.3333 212.167,98.6667 211.5,99C 212.623,100.044 213.956,100.71 215.5,101C 214.328,101.419 213.328,102.085 212.5,103C 214.991,103.626 214.991,104.459 212.5,105.5C 214.783,107.486 214.116,108.653 210.5,109C 212.64,109.973 214.307,111.473 215.5,113.5C 215.023,114.478 214.357,115.311 213.5,116C 214.833,116.667 216.167,117.333 217.5,118C 215.141,119.88 213.807,122.38 213.5,125.5C 213.818,126.647 214.484,127.481 215.5,128C 214.833,128.333 214.167,128.667 213.5,129C 215.384,131.262 217.384,133.428 219.5,135.5C 217.485,137.576 215.485,139.576 213.5,141.5C 210.032,140.899 206.699,139.899 203.5,138.5C 203.977,136.662 204.31,134.828 204.5,133C 203.5,131.333 202.5,129.667 201.5,128C 202.87,126.559 203.87,124.892 204.5,123C 203.135,121.318 201.635,121.151 200,122.5C 200.242,120.862 201.075,119.362 202.5,118C 201.377,116.956 200.044,116.29 198.5,116C 199.448,115.517 200.448,115.351 201.5,115.5C 201.439,113.408 200.439,111.908 198.5,111C 199.5,110.667 200.5,110.333 201.5,110C 198.463,106.097 195.796,101.931 193.5,97.5C 194.55,95.8983 193.883,95.065 191.5,95C 195.636,93.4694 195.303,91.4694 190.5,89C 191.833,88.6667 193.167,88.3333 194.5,88C 190.511,86.6686 186.511,85.3353 182.5,84C 183.737,83.7679 184.737,83.2679 185.5,82.5 Z"/></g>
<g><path style="opacity:0.012" fill="#00aaa9" d="M 107.5,118.5 C 108.833,119.167 108.833,119.167 107.5,118.5 Z"/></g>
<g><path style="opacity:0.995" fill="#32cdc1" d="M 246.5,111.5 C 249.146,113.479 251.479,115.812 253.5,118.5C 251.14,121.87 251.473,125.536 254.5,129.5C 255.274,130.711 256.107,130.711 257,129.5C 258.374,131.707 258.874,133.873 258.5,136C 258.37,137.059 257.87,137.892 257,138.5C 256.64,136.392 255.973,134.392 255,132.5C 254.65,134.429 253.983,136.429 253,138.5C 250.449,135.829 250.282,133.162 252.5,130.5C 251.242,131.016 250.242,130.35 249.5,128.5C 248.196,130.915 248.529,133.415 250.5,136C 249.289,136.787 248.289,137.454 247.5,138C 248.093,139.882 249.427,140.882 251.5,141C 249.109,141.691 249.109,142.691 251.5,144C 249.939,144.318 248.772,145.151 248,146.5C 247.667,145.167 247.333,143.833 247,142.5C 246.107,143.711 245.274,143.711 244.5,142.5C 244.709,141.914 245.043,141.414 245.5,141C 243.791,138.762 241.791,138.262 239.5,139.5C 238.957,139.44 238.624,139.107 238.5,138.5C 240.692,137.141 242.359,135.308 243.5,133C 243,132.5 242.5,132 242,131.5C 240.385,132.386 238.885,133.386 237.5,134.5C 237.36,132.876 238.027,131.71 239.5,131C 238.66,129.334 239.16,129.167 241,130.5C 241.333,129.5 241.667,128.5 242,127.5C 242.914,128.654 243.747,128.487 244.5,127C 243.552,126.517 242.552,126.351 241.5,126.5C 240.532,123.956 238.865,121.789 236.5,120C 238.693,120.57 240.693,120.236 242.5,119C 241.073,116.631 239.239,116.131 237,117.5C 235.365,116.274 233.865,114.941 232.5,113.5C 233.863,112.107 234.696,110.441 235,108.5C 235.718,109.451 236.551,109.617 237.5,109C 236.576,108.15 236.576,107.15 237.5,106C 236.279,104.018 234.612,102.518 232.5,101.5C 232.833,101.167 233.167,100.833 233.5,100.5C 237.004,102.418 240.337,104.584 243.5,107C 242.027,107.71 241.36,108.876 241.5,110.5C 243.592,110.561 245.092,111.561 246,113.5C 246.464,112.906 246.631,112.239 246.5,111.5 Z"/></g>
<g><path style="opacity:0.997" fill="#2ecac0" d="M 214.5,91.5 C 226.911,95.0389 238.245,100.706 248.5,108.5C 250.167,110.5 251.833,112.5 253.5,114.5C 253.565,114.938 253.399,115.272 253,115.5C 250.609,112.403 247.776,110.237 244.5,109C 245.381,109.708 246.047,110.542 246.5,111.5C 246.631,112.239 246.464,112.906 246,113.5C 245.092,111.561 243.592,110.561 241.5,110.5C 241.36,108.876 242.027,107.71 243.5,107C 240.337,104.584 237.004,102.418 233.5,100.5C 233.167,100.833 232.833,101.167 232.5,101.5C 234.612,102.518 236.279,104.018 237.5,106C 236.576,107.15 236.576,108.15 237.5,109C 236.551,109.617 235.718,109.451 235,108.5C 234.696,110.441 233.863,112.107 232.5,113.5C 233.865,114.941 235.365,116.274 237,117.5C 239.239,116.131 241.073,116.631 242.5,119C 240.693,120.236 238.693,120.57 236.5,120C 238.865,121.789 240.532,123.956 241.5,126.5C 242.552,126.351 243.552,126.517 244.5,127C 243.747,128.487 242.914,128.654 242,127.5C 241.667,128.5 241.333,129.5 241,130.5C 239.16,129.167 238.66,129.334 239.5,131C 238.027,131.71 237.36,132.876 237.5,134.5C 237.565,134.938 237.399,135.272 237,135.5C 236.3,133.968 235.134,132.968 233.5,132.5C 233.471,133.834 232.637,135.167 231,136.5C 230.399,134.641 229.566,134.308 228.5,135.5C 227.761,135.631 227.094,135.464 226.5,135C 227.654,134.086 227.487,133.253 226,132.5C 225.333,133.833 224.667,133.833 224,132.5C 222.173,130.414 222.173,128.414 224,126.5C 224.992,128.665 226.158,128.499 227.5,126C 224.59,122.791 225.257,120.458 229.5,119C 227.55,119.123 225.883,118.123 224.5,116C 225.451,115.282 225.617,114.449 225,113.5C 224.189,114.96 223.355,115.293 222.5,114.5C 222.833,113.167 223.167,111.833 223.5,110.5C 223.023,109.522 222.357,108.689 221.5,108C 222.625,105.861 223.958,104.694 225.5,104.5C 225.023,103.522 224.357,102.689 223.5,102C 223.833,101.667 224.167,101.333 224.5,101C 220.639,100.431 220.639,99.5976 224.5,98.5C 221.802,95.16 218.469,92.8266 214.5,91.5 Z"/></g>
<g><path style="opacity:0.306" fill="#139f9e" d="M 70.5,103.5 C 71.8333,103.833 73.1667,104.167 74.5,104.5C 75.7804,105.931 77.4471,106.598 79.5,106.5C 85.2937,109.871 91.627,111.871 98.5,112.5C 100.848,114.097 103.514,115.097 106.5,115.5C 114.364,117.799 122.364,119.466 130.5,120.5C 139.321,123.202 148.321,125.536 157.5,127.5C 160.598,127.756 163.598,128.422 166.5,129.5C 174.377,131.134 182.044,133.134 189.5,135.5C 188.508,135.328 187.842,135.662 187.5,136.5C 184.833,135.833 182.167,135.167 179.5,134.5C 178.432,133.566 177.099,133.232 175.5,133.5C 149.991,127.207 124.324,121.041 98.5,115C 90.7291,112.799 83.0625,110.299 75.5,107.5C 73.5008,106.492 71.8342,105.159 70.5,103.5 Z"/></g>
<g><path style="opacity:0.008" fill="#007f7e" d="M 175.5,133.5 C 175.5,133.833 175.5,134.167 175.5,134.5C 174.83,134.019 174.83,133.685 175.5,133.5 Z"/></g>
<g><path style="opacity:0.004" fill="#00fffe" d="M 174.5,134.5 C 173.833,135.167 173.833,135.167 174.5,134.5 Z"/></g>
<g><path style="opacity:0.012" fill="#00c5c5" d="M 175.5,134.5 C 176.239,134.369 176.906,134.536 177.5,135C 176.563,135.692 175.897,135.525 175.5,134.5 Z"/></g>
<g><path style="opacity:0.004" fill="#00fffe" d="M 179.5,134.5 C 178.833,135.167 178.833,135.167 179.5,134.5 Z"/></g>
<g><path style="opacity:0.008" fill="#00fffe" d="M 180.5,135.5 C 181.833,136.167 181.833,136.167 180.5,135.5 Z"/></g>
<g><path style="opacity:0.004" fill="#00fffe" d="M 53.5,136.5 C 54.8333,137.167 54.8333,137.167 53.5,136.5 Z"/></g>
<g><path style="opacity:0.004" fill="#00fffe" d="M 52.5,140.5 C 53.8333,141.167 53.8333,141.167 52.5,140.5 Z"/></g>
<g><path style="opacity:0.008" fill="#7ffffe" d="M 266.5,143.5 C 267.525,143.897 267.692,144.563 267,145.5C 266.536,144.906 266.369,144.239 266.5,143.5 Z"/></g>
<g><path style="opacity:0.996" fill="#05919e" d="M 65.5,149.5 C 63.8712,148.375 62.3712,147.041 61,145.5C 60.8333,145.833 60.6667,146.167 60.5,146.5C 62.6944,149.195 64.6944,152.028 66.5,155C 64.1088,156.309 64.1088,157.309 66.5,158C 65.572,158.388 64.9054,159.055 64.5,160C 63.9508,162.91 64.6174,165.743 66.5,168.5C 65.9747,169.192 65.3081,169.692 64.5,170C 64.6158,171.268 64.9491,172.602 65.5,174C 64.6919,174.308 64.0253,174.808 63.5,175.5C 66.4851,178.034 66.8184,180.701 64.5,183.5C 65.0402,184.748 65.7069,185.915 66.5,187C 65.3659,188.016 65.6992,188.683 67.5,189C 66.0879,190.786 64.4212,192.286 62.5,193.5C 60.5056,190.845 59.0056,187.845 58,184.5C 56.8647,184.727 55.698,185.06 54.5,185.5C 57.2237,190.445 60.557,194.945 64.5,199C 64.2716,199.399 63.9382,199.565 63.5,199.5C 59.2133,196.239 55.88,192.239 53.5,187.5C 52.0245,182.931 50.8578,178.265 50,173.5C 47.5327,159.863 50.0327,147.53 57.5,136.5C 60.4253,140.686 63.092,145.019 65.5,149.5 Z"/></g>
<g><path style="opacity:0.997" fill="#35cec1" d="M 253.5,114.5 C 268.401,132.268 269.068,151.601 255.5,172.5C 255.565,172.062 255.399,171.728 255,171.5C 252.37,175.132 249.37,178.465 246,181.5C 245.667,181.167 245.333,180.833 245,180.5C 245.226,177.893 245.56,175.56 246,173.5C 246.414,173.957 246.914,174.291 247.5,174.5C 248.685,173.147 250.019,171.98 251.5,171C 249.109,170.309 249.109,169.309 251.5,168C 250.874,167.25 250.374,166.416 250,165.5C 249.692,166.308 249.192,166.975 248.5,167.5C 247.494,167.062 247.494,166.396 248.5,165.5C 247.624,164.749 246.624,164.249 245.5,164C 247.422,162.54 248.089,160.873 247.5,159C 248.167,158.667 248.833,158.333 249.5,158C 248.643,157.311 247.977,156.478 247.5,155.5C 248.833,154.5 248.833,153.5 247.5,152.5C 248.518,151.148 249.851,150.148 251.5,149.5C 249.93,149.306 248.43,149.306 247,149.5C 246.784,147.616 246.117,145.949 245,144.5C 244.577,145.956 243.744,146.456 242.5,146C 240.285,144.057 240.285,142.391 242.5,141C 241.263,140.768 240.263,140.268 239.5,139.5C 241.791,138.262 243.791,138.762 245.5,141C 245.043,141.414 244.709,141.914 244.5,142.5C 245.274,143.711 246.107,143.711 247,142.5C 247.333,143.833 247.667,145.167 248,146.5C 248.772,145.151 249.939,144.318 251.5,144C 249.109,142.691 249.109,141.691 251.5,141C 249.427,140.882 248.093,139.882 247.5,138C 248.289,137.454 249.289,136.787 250.5,136C 248.529,133.415 248.196,130.915 249.5,128.5C 250.242,130.35 251.242,131.016 252.5,130.5C 250.282,133.162 250.449,135.829 253,138.5C 253.983,136.429 254.65,134.429 255,132.5C 255.973,134.392 256.64,136.392 257,138.5C 257.87,137.892 258.37,137.059 258.5,136C 258.874,133.873 258.374,131.707 257,129.5C 256.107,130.711 255.274,130.711 254.5,129.5C 251.473,125.536 251.14,121.87 253.5,118.5C 251.479,115.812 249.146,113.479 246.5,111.5C 246.047,110.542 245.381,109.708 244.5,109C 247.776,110.237 250.609,112.403 253,115.5C 253.399,115.272 253.565,114.938 253.5,114.5 Z"/></g>
<g><path style="opacity:0.996" fill="#007889" d="M 198.5,137.5 C 200.216,137.629 201.883,137.962 203.5,138.5C 206.699,139.899 210.032,140.899 213.5,141.5C 216.005,143.011 218.672,144.345 221.5,145.5C 231.59,150.584 237.924,158.584 240.5,169.5C 240.663,171.857 240.497,174.19 240,176.5C 239.818,173.774 239.318,171.107 238.5,168.5C 237.232,169.428 235.899,169.595 234.5,169C 231.687,164.248 228.52,160.415 225,157.5C 224,158.167 223,158.833 222,159.5C 221.105,157.196 220.271,154.862 219.5,152.5C 218.059,151.696 216.559,151.029 215,150.5C 213.989,150.892 213.489,151.559 213.5,152.5C 212.786,149.973 212.12,147.473 211.5,145C 206.76,142.299 201.76,139.966 196.5,138C 197.094,137.536 197.761,137.369 198.5,137.5 Z"/></g>
<g><path style="opacity:0.008" fill="#7ffffe" d="M 265.5,151.5 C 266.833,152.167 266.833,152.167 265.5,151.5 Z"/></g>
<g><path style="opacity:1" fill="#008a99" d="M 189.5,135.5 C 192.727,135.676 195.727,136.343 198.5,137.5C 197.761,137.369 197.094,137.536 196.5,138C 201.76,139.966 206.76,142.299 211.5,145C 212.12,147.473 212.786,149.973 213.5,152.5C 213.489,151.559 213.989,150.892 215,150.5C 216.559,151.029 218.059,151.696 219.5,152.5C 220.271,154.862 221.105,157.196 222,159.5C 223,158.833 224,158.167 225,157.5C 228.52,160.415 231.687,164.248 234.5,169C 235.899,169.595 237.232,169.428 238.5,168.5C 239.318,171.107 239.818,173.774 240,176.5C 240.497,174.19 240.663,171.857 240.5,169.5C 241.826,174.579 241.493,179.579 239.5,184.5C 238.761,184.631 238.094,184.464 237.5,184C 236.624,181.854 235.291,180.021 233.5,178.5C 230.91,178.165 228.577,176.665 226.5,174C 223.321,173.403 220.987,171.737 219.5,169C 217.567,168.749 215.734,168.249 214,167.5C 213.667,167.833 213.333,168.167 213,168.5C 212.935,166.117 212.102,165.45 210.5,166.5C 209.335,165.509 208.168,164.509 207,163.5C 206.228,163.645 205.561,163.978 205,164.5C 204.667,161.5 204.333,158.5 204,155.5C 203.802,157.382 203.302,159.048 202.5,160.5C 202.02,149.515 197.02,141.515 187.5,136.5C 187.842,135.662 188.508,135.328 189.5,135.5 Z"/></g>
<g><path style="opacity:0.004" fill="#00fffe" d="M 81.5,154.5 C 82.8333,155.167 82.8333,155.167 81.5,154.5 Z"/></g>
<g><path style="opacity:0.004" fill="#00fffe" d="M 48.5,155.5 C 49.8333,156.167 49.8333,156.167 48.5,155.5 Z"/></g>
<g><path style="opacity:0.996" fill="#30ccc2" d="M 239.5,139.5 C 240.263,140.268 241.263,140.768 242.5,141C 240.285,142.391 240.285,144.057 242.5,146C 243.744,146.456 244.577,145.956 245,144.5C 246.117,145.949 246.784,147.616 247,149.5C 248.43,149.306 249.93,149.306 251.5,149.5C 249.851,150.148 248.518,151.148 247.5,152.5C 248.833,153.5 248.833,154.5 247.5,155.5C 247.977,156.478 248.643,157.311 249.5,158C 248.833,158.333 248.167,158.667 247.5,159C 248.089,160.873 247.422,162.54 245.5,164C 246.624,164.249 247.624,164.749 248.5,165.5C 247.494,166.396 247.494,167.062 248.5,167.5C 249.192,166.975 249.692,166.308 250,165.5C 250.374,166.416 250.874,167.25 251.5,168C 249.109,169.309 249.109,170.309 251.5,171C 250.019,171.98 248.685,173.147 247.5,174.5C 246.914,174.291 246.414,173.957 246,173.5C 245.56,175.56 245.226,177.893 245,180.5C 245.333,180.833 245.667,181.167 246,181.5C 249.37,178.465 252.37,175.132 255,171.5C 255.399,171.728 255.565,172.062 255.5,172.5C 250.382,180.288 243.715,186.288 235.5,190.5C 236.167,189.5 236.833,188.5 237.5,187.5C 237.782,186.222 238.449,185.222 239.5,184.5C 241.493,179.579 241.826,174.579 240.5,169.5C 237.924,158.584 231.59,150.584 221.5,145.5C 223.389,144.678 225.389,143.845 227.5,143C 224.751,140.81 225.085,139.143 228.5,138C 227.402,137.23 227.402,136.397 228.5,135.5C 229.566,134.308 230.399,134.641 231,136.5C 232.637,135.167 233.471,133.834 233.5,132.5C 235.134,132.968 236.3,133.968 237,135.5C 237.399,135.272 237.565,134.938 237.5,134.5C 238.885,133.386 240.385,132.386 242,131.5C 242.5,132 243,132.5 243.5,133C 242.359,135.308 240.692,137.141 238.5,138.5C 238.624,139.107 238.957,139.44 239.5,139.5 Z"/></g>
<g><path style="opacity:0.008" fill="#007f7e" d="M 47.5,158.5 C 48.8333,159.167 48.8333,159.167 47.5,158.5 Z"/></g>
<g><path style="opacity:0.004" fill="#00fffe" d="M 44.5,159.5 C 45.525,159.897 45.6917,160.563 45,161.5C 44.5357,160.906 44.369,160.239 44.5,159.5 Z"/></g>
<g><path style="opacity:0.997" fill="#0199a8" d="M 65.5,149.5 C 65.7496,150.922 66.583,151.922 68,152.5C 68.4966,154.81 68.6633,157.143 68.5,159.5C 69.8333,159.5 71.1667,159.5 72.5,159.5C 72.4802,161.143 73.1468,162.476 74.5,163.5C 74.2907,164.086 73.9574,164.586 73.5,165C 75.0664,165.608 76.3998,166.442 77.5,167.5C 76.2438,167.461 75.2438,167.961 74.5,169C 75.7079,171.25 77.0413,173.417 78.5,175.5C 77.45,177.102 78.1167,177.935 80.5,178C 79.5761,178.85 79.5761,179.85 80.5,181C 80.0946,181.945 79.428,182.612 78.5,183C 78.8333,183.333 79.1667,183.667 79.5,184C 78.552,184.483 77.552,184.649 76.5,184.5C 75.95,180.661 74.95,180.661 73.5,184.5C 74.6094,186.385 75.4427,188.385 76,190.5C 76.2896,188.956 76.9563,187.623 78,186.5C 78.4482,188.224 79.2815,188.891 80.5,188.5C 79.5823,190.839 77.9156,192.339 75.5,193C 78.1667,193.667 78.1667,194.333 75.5,195C 76.5,195.333 77.5,195.667 78.5,196C 77.2889,197.113 77.2889,198.28 78.5,199.5C 78.1667,199.833 77.8333,200.167 77.5,200.5C 76.7189,199.271 76.2189,197.938 76,196.5C 74.7485,198.001 73.7485,199.668 73,201.5C 71.2739,200.424 69.4406,200.257 67.5,201C 70.7234,203.062 74.0568,204.896 77.5,206.5C 78.1667,206.5 78.5,206.833 78.5,207.5C 72.7403,206.122 67.7403,203.455 63.5,199.5C 63.9382,199.565 64.2716,199.399 64.5,199C 60.557,194.945 57.2237,190.445 54.5,185.5C 55.698,185.06 56.8647,184.727 58,184.5C 59.0056,187.845 60.5056,190.845 62.5,193.5C 64.4212,192.286 66.0879,190.786 67.5,189C 65.6992,188.683 65.3659,188.016 66.5,187C 65.7069,185.915 65.0402,184.748 64.5,183.5C 66.8184,180.701 66.4851,178.034 63.5,175.5C 64.0253,174.808 64.6919,174.308 65.5,174C 64.9491,172.602 64.6158,171.268 64.5,170C 65.3081,169.692 65.9747,169.192 66.5,168.5C 64.6174,165.743 63.9508,162.91 64.5,160C 64.9054,159.055 65.572,158.388 66.5,158C 64.1088,157.309 64.1088,156.309 66.5,155C 64.6944,152.028 62.6944,149.195 60.5,146.5C 60.6667,146.167 60.8333,145.833 61,145.5C 62.3712,147.041 63.8712,148.375 65.5,149.5 Z"/></g>
<g><path style="opacity:0.004" fill="#00fffe" d="M 98.5,160.5 C 99.8333,161.167 99.8333,161.167 98.5,160.5 Z"/></g>
<g><path style="opacity:0.004" fill="#00fffe" d="M 47.5,164.5 C 46.8333,163.167 46.8333,163.167 47.5,164.5 Z"/></g>
<g><path style="opacity:0.997" fill="#04a2af" d="M 65.5,149.5 C 81.256,160.696 98.756,167.029 118,168.5C 118.417,169.756 119.25,170.423 120.5,170.5C 120.083,171.124 119.416,171.457 118.5,171.5C 113.887,170.18 109.221,169.18 104.5,168.5C 100.679,166.71 96.6785,165.877 92.5,166C 93.7375,166.232 94.7375,166.732 95.5,167.5C 94.7624,169.76 93.7624,169.927 92.5,168C 91.1667,167.333 89.8333,167.333 88.5,168C 93.6232,170.199 93.6232,172.199 88.5,174C 90.8858,177.269 92.5525,180.602 93.5,184C 90.8333,184.667 90.8333,185.333 93.5,186C 92.7511,187.734 92.2511,189.567 92,191.5C 91.1887,190.04 90.3554,189.707 89.5,190.5C 91.0444,191.747 92.5444,193.08 94,194.5C 94.6514,196.235 94.4847,197.902 93.5,199.5C 94.4655,200.914 95.4655,201.747 96.5,202C 96.1802,203.653 95.1802,204.653 93.5,205C 97.2721,205.611 97.2721,206.611 93.5,208C 84.431,208.326 84.431,209.493 93.5,211.5C 98.8297,212.831 104.163,214.164 109.5,215.5C 110.338,215.842 110.672,216.508 110.5,217.5C 107.321,216.207 103.988,215.54 100.5,215.5C 92.9592,213.431 85.6259,210.764 78.5,207.5C 78.5,206.833 78.1667,206.5 77.5,206.5C 80.702,206.581 84.0353,206.581 87.5,206.5C 88.5896,205.609 88.5896,204.609 87.5,203.5C 90.0088,201.41 89.6754,199.577 86.5,198C 87.3279,197.085 88.3279,196.419 89.5,196C 88.5,195 87.5,194 86.5,193C 88.797,191.84 88.4637,190.84 85.5,190C 88.9052,189.033 89.4052,187.2 87,184.5C 81.5592,181.912 82.0592,180.745 88.5,181C 87.7161,178.418 86.0495,176.751 83.5,176C 86.0544,173.731 86.0544,171.398 83.5,169C 84.2461,166.907 84.5795,164.907 84.5,163C 81.9036,161.864 79.237,161.031 76.5,160.5C 76.1367,162.911 77.1367,164.411 79.5,165C 78.9341,165.995 78.2674,166.828 77.5,167.5C 76.3998,166.442 75.0664,165.608 73.5,165C 73.9574,164.586 74.2907,164.086 74.5,163.5C 73.1468,162.476 72.4802,161.143 72.5,159.5C 71.1667,159.5 69.8333,159.5 68.5,159.5C 68.6633,157.143 68.4966,154.81 68,152.5C 66.583,151.922 65.7496,150.922 65.5,149.5 Z"/></g>
<g><path style="opacity:0.004" fill="#00fffe" d="M 101.5,163.5 C 102.833,164.167 102.833,164.167 101.5,163.5 Z"/></g>
<g><path style="opacity:0.016" fill="#2ea9a9" d="M 47.5,164.5 C 48.525,164.897 48.6917,165.563 48,166.5C 47.5357,165.906 47.369,165.239 47.5,164.5 Z"/></g>
<g><path style="opacity:0.004" fill="#00fffe" d="M 199.5,165.5 C 200.833,166.167 200.833,166.167 199.5,165.5 Z"/></g>
<g><path style="opacity:0.996" fill="#00aab9" d="M 95.5,167.5 C 97.854,167.838 100.187,168.338 102.5,169C 103.714,170.979 105.381,172.479 107.5,173.5C 106.758,175.35 105.758,176.016 104.5,175.5C 108.361,176.598 108.361,177.431 104.5,178C 106.301,178.317 106.634,178.984 105.5,180C 106.833,180.333 108.167,180.667 109.5,181C 105.763,181.999 105.763,183.332 109.5,185C 108.576,185.85 108.576,186.85 109.5,188C 109.056,189.762 108.556,189.595 108,187.5C 107.487,189.521 106.32,191.021 104.5,192C 107.177,192.249 109.51,193.249 111.5,195C 109.219,196.851 109.219,198.518 111.5,200C 110.765,202.885 111.765,205.218 114.5,207C 112.314,208.309 110.147,208.476 108,207.5C 105.667,208.5 104,210.167 103,212.5C 99.8151,210.748 96.6484,210.415 93.5,211.5C 84.431,209.493 84.431,208.326 93.5,208C 97.2721,206.611 97.2721,205.611 93.5,205C 95.1802,204.653 96.1802,203.653 96.5,202C 95.4655,201.747 94.4655,200.914 93.5,199.5C 94.4847,197.902 94.6514,196.235 94,194.5C 92.5444,193.08 91.0444,191.747 89.5,190.5C 90.3554,189.707 91.1887,190.04 92,191.5C 92.2511,189.567 92.7511,187.734 93.5,186C 90.8333,185.333 90.8333,184.667 93.5,184C 92.5525,180.602 90.8858,177.269 88.5,174C 93.6232,172.199 93.6232,170.199 88.5,168C 89.8333,167.333 91.1667,167.333 92.5,168C 93.7624,169.927 94.7624,169.76 95.5,167.5 Z"/></g>
<g><path style="opacity:0.012" fill="#55ffa9" d="M 259.5,169.5 C 260.833,170.167 260.833,170.167 259.5,169.5 Z"/></g>
<g><path style="opacity:0.996" fill="#00b2c0" d="M 104.5,168.5 C 108.875,170.554 113.541,172.054 118.5,173C 116.993,173.837 116.493,175.004 117,176.5C 118.674,177.065 120.507,177.232 122.5,177C 121.672,177.915 120.672,178.581 119.5,179C 120.5,179.833 121.5,180.667 122.5,181.5C 122.291,182.086 121.957,182.586 121.5,183C 124.047,183.552 126.047,184.886 127.5,187C 121.192,186.983 120.859,188.316 126.5,191C 122.636,192.55 122.636,194.05 126.5,195.5C 125.636,197.197 124.303,198.363 122.5,199C 123.325,200.688 124.325,200.855 125.5,199.5C 125.997,201.216 126.331,202.883 126.5,204.5C 125.092,205.243 123.759,206.077 122.5,207C 123.253,208.487 124.086,208.654 125,207.5C 125.166,209.532 126.333,211.365 128.5,213C 127.874,213.75 127.374,214.584 127,215.5C 124.553,214.004 123.719,214.337 124.5,216.5C 120.094,216.353 115.761,215.686 111.5,214.5C 110.584,214.543 109.917,214.876 109.5,215.5C 104.163,214.164 98.8297,212.831 93.5,211.5C 96.6484,210.415 99.8151,210.748 103,212.5C 104,210.167 105.667,208.5 108,207.5C 110.147,208.476 112.314,208.309 114.5,207C 111.765,205.218 110.765,202.885 111.5,200C 109.219,198.518 109.219,196.851 111.5,195C 109.51,193.249 107.177,192.249 104.5,192C 106.32,191.021 107.487,189.521 108,187.5C 108.556,189.595 109.056,189.762 109.5,188C 108.576,186.85 108.576,185.85 109.5,185C 105.763,183.332 105.763,181.999 109.5,181C 108.167,180.667 106.833,180.333 105.5,180C 106.634,178.984 106.301,178.317 104.5,178C 108.361,177.431 108.361,176.598 104.5,175.5C 105.758,176.016 106.758,175.35 107.5,173.5C 105.381,172.479 103.714,170.979 102.5,169C 100.187,168.338 97.854,167.838 95.5,167.5C 94.7375,166.732 93.7375,166.232 92.5,166C 96.6785,165.877 100.679,166.71 104.5,168.5 Z"/></g>
<g><path style="opacity:0.997" fill="#009daa" d="M 239.5,184.5 C 238.449,185.222 237.782,186.222 237.5,187.5C 236.596,186.791 236.263,185.791 236.5,184.5C 232.161,185.154 228.327,184.154 225,181.5C 223.251,182.299 221.918,181.632 221,179.5C 220.667,179.833 220.333,180.167 220,180.5C 219.601,176.679 218.268,176.012 216,178.5C 214.779,177.728 213.779,176.728 213,175.5C 212.667,176.167 212.333,176.833 212,177.5C 209.365,176.527 207.365,174.86 206,172.5C 205.667,172.833 205.333,173.167 205,173.5C 203.498,169.289 202.665,165.289 202.5,161.5C 201.167,161.167 201.167,160.833 202.5,160.5C 203.302,159.048 203.802,157.382 204,155.5C 204.333,158.5 204.667,161.5 205,164.5C 205.561,163.978 206.228,163.645 207,163.5C 208.168,164.509 209.335,165.509 210.5,166.5C 212.102,165.45 212.935,166.117 213,168.5C 213.333,168.167 213.667,167.833 214,167.5C 215.734,168.249 217.567,168.749 219.5,169C 220.987,171.737 223.321,173.403 226.5,174C 228.577,176.665 230.91,178.165 233.5,178.5C 235.291,180.021 236.624,181.854 237.5,184C 238.094,184.464 238.761,184.631 239.5,184.5 Z"/></g>
<g><path style="opacity:0.997" fill="#04a9b3" d="M 202.5,161.5 C 202.665,165.289 203.498,169.289 205,173.5C 205.333,173.167 205.667,172.833 206,172.5C 207.365,174.86 209.365,176.527 212,177.5C 212.333,176.833 212.667,176.167 213,175.5C 213.779,176.728 214.779,177.728 216,178.5C 218.268,176.012 219.601,176.679 220,180.5C 220.333,180.167 220.667,179.833 221,179.5C 221.918,181.632 223.251,182.299 225,181.5C 228.327,184.154 232.161,185.154 236.5,184.5C 236.263,185.791 236.596,186.791 237.5,187.5C 236.833,188.5 236.167,189.5 235.5,190.5C 232.943,191.188 230.609,192.354 228.5,194C 233.01,195.418 237.01,197.585 240.5,200.5C 235.018,198.116 229.351,196.116 223.5,194.5C 218.126,192.408 212.46,191.075 206.5,190.5C 200.751,188.566 194.751,187.233 188.5,186.5C 188.721,184.336 189.721,182.67 191.5,181.5C 197.758,176.323 201.424,169.656 202.5,161.5 Z"/></g>
<g><path style="opacity:0.996" fill="#02b8c4" d="M 104.5,168.5 C 109.221,169.18 113.887,170.18 118.5,171.5C 119.416,171.457 120.083,171.124 120.5,170.5C 121.791,170.263 122.791,170.596 123.5,171.5C 122.761,171.369 122.094,171.536 121.5,172C 126.604,173.576 131.604,175.076 136.5,176.5C 138.498,177.148 140.498,177.981 142.5,179C 141.853,180.993 140.187,182.659 137.5,184C 139.301,184.317 139.634,184.984 138.5,186C 141.126,188.382 141.46,190.715 139.5,193C 142.875,194.029 144.042,196.196 143,199.5C 142.667,198.5 142.333,197.5 142,196.5C 141.691,197.766 141.191,198.933 140.5,200C 141.833,200.333 143.167,200.667 144.5,201C 143.366,202.016 143.699,202.683 145.5,203C 141.5,204.333 141.5,205.667 145.5,207C 145.167,207.333 144.833,207.667 144.5,208C 146.283,209.067 146.783,210.567 146,212.5C 143.765,215.473 140.765,217.14 137,217.5C 134.907,216.754 132.907,216.421 131,216.5C 130.667,217.167 130.333,217.833 130,218.5C 128.556,216.845 126.722,216.178 124.5,216.5C 123.719,214.337 124.553,214.004 127,215.5C 127.374,214.584 127.874,213.75 128.5,213C 126.333,211.365 125.166,209.532 125,207.5C 124.086,208.654 123.253,208.487 122.5,207C 123.759,206.077 125.092,205.243 126.5,204.5C 126.331,202.883 125.997,201.216 125.5,199.5C 124.325,200.855 123.325,200.688 122.5,199C 124.303,198.363 125.636,197.197 126.5,195.5C 122.636,194.05 122.636,192.55 126.5,191C 120.859,188.316 121.192,186.983 127.5,187C 126.047,184.886 124.047,183.552 121.5,183C 121.957,182.586 122.291,182.086 122.5,181.5C 121.5,180.667 120.5,179.833 119.5,179C 120.672,178.581 121.672,177.915 122.5,177C 120.507,177.232 118.674,177.065 117,176.5C 116.493,175.004 116.993,173.837 118.5,173C 113.541,172.054 108.875,170.554 104.5,168.5 Z"/></g>
<g><path style="opacity:0.945" fill="#13afaf" d="M 123.5,171.5 C 143.043,175.94 162.376,179.94 181.5,183.5C 184.976,183.45 188.31,182.783 191.5,181.5C 189.721,182.67 188.721,184.336 188.5,186.5C 187.167,186.5 185.833,186.5 184.5,186.5C 175.327,184.346 165.993,182.346 156.5,180.5C 149.903,178.781 143.237,177.447 136.5,176.5C 131.604,175.076 126.604,173.576 121.5,172C 122.094,171.536 122.761,171.369 123.5,171.5 Z"/></g>
<g><path style="opacity:0.996" fill="#08bdc5" d="M 136.5,176.5 C 143.237,177.447 149.903,178.781 156.5,180.5C 156.5,180.833 156.5,181.167 156.5,181.5C 154.319,181.284 152.653,182.117 151.5,184C 153.952,184.29 156.285,184.956 158.5,186C 157.5,186.333 156.5,186.667 155.5,187C 158.167,188.667 158.167,190.333 155.5,192C 156.891,194.234 158.891,196.567 161.5,199C 160.552,199.483 159.552,199.649 158.5,199.5C 158.413,202.598 158.913,202.932 160,200.5C 160.318,202.061 161.151,203.228 162.5,204C 162.004,205.996 161.004,207.663 159.5,209C 159.802,210.655 161.136,211.988 163.5,213C 162.167,213 160.833,213 159.5,213C 160.833,213.667 160.833,214.333 159.5,215C 160.167,215.333 160.833,215.667 161.5,216C 155.349,216.61 154.349,218.943 158.5,223C 154.667,222.664 151,222.831 147.5,223.5C 136.519,221.279 125.519,218.946 114.5,216.5C 113.584,216.543 112.917,216.876 112.5,217.5C 111.833,217.5 111.167,217.5 110.5,217.5C 110.672,216.508 110.338,215.842 109.5,215.5C 109.917,214.876 110.584,214.543 111.5,214.5C 115.761,215.686 120.094,216.353 124.5,216.5C 126.722,216.178 128.556,216.845 130,218.5C 130.333,217.833 130.667,217.167 131,216.5C 132.907,216.421 134.907,216.754 137,217.5C 140.765,217.14 143.765,215.473 146,212.5C 146.783,210.567 146.283,209.067 144.5,208C 144.833,207.667 145.167,207.333 145.5,207C 141.5,205.667 141.5,204.333 145.5,203C 143.699,202.683 143.366,202.016 144.5,201C 143.167,200.667 141.833,200.333 140.5,200C 141.191,198.933 141.691,197.766 142,196.5C 142.333,197.5 142.667,198.5 143,199.5C 144.042,196.196 142.875,194.029 139.5,193C 141.46,190.715 141.126,188.382 138.5,186C 139.634,184.984 139.301,184.317 137.5,184C 140.187,182.659 141.853,180.993 142.5,179C 140.498,177.981 138.498,177.148 136.5,176.5 Z"/></g>
<g><path style="opacity:0.997" fill="#009faf" d="M 77.5,206.5 C 74.0568,204.896 70.7234,203.062 67.5,201C 69.4406,200.257 71.2739,200.424 73,201.5C 73.7485,199.668 74.7485,198.001 76,196.5C 76.2189,197.938 76.7189,199.271 77.5,200.5C 77.8333,200.167 78.1667,199.833 78.5,199.5C 77.2889,198.28 77.2889,197.113 78.5,196C 77.5,195.667 76.5,195.333 75.5,195C 78.1667,194.333 78.1667,193.667 75.5,193C 77.9156,192.339 79.5823,190.839 80.5,188.5C 79.2815,188.891 78.4482,188.224 78,186.5C 76.9563,187.623 76.2896,188.956 76,190.5C 75.4427,188.385 74.6094,186.385 73.5,184.5C 74.95,180.661 75.95,180.661 76.5,184.5C 77.552,184.649 78.552,184.483 79.5,184C 79.1667,183.667 78.8333,183.333 78.5,183C 79.428,182.612 80.0946,181.945 80.5,181C 79.5761,179.85 79.5761,178.85 80.5,178C 78.1167,177.935 77.45,177.102 78.5,175.5C 77.0413,173.417 75.7079,171.25 74.5,169C 75.2438,167.961 76.2438,167.461 77.5,167.5C 78.2674,166.828 78.9341,165.995 79.5,165C 77.1367,164.411 76.1367,162.911 76.5,160.5C 79.237,161.031 81.9036,161.864 84.5,163C 84.5795,164.907 84.2461,166.907 83.5,169C 86.0544,171.398 86.0544,173.731 83.5,176C 86.0495,176.751 87.7161,178.418 88.5,181C 82.0592,180.745 81.5592,181.912 87,184.5C 89.4052,187.2 88.9052,189.033 85.5,190C 88.4637,190.84 88.797,191.84 86.5,193C 87.5,194 88.5,195 89.5,196C 88.3279,196.419 87.3279,197.085 86.5,198C 89.6754,199.577 90.0088,201.41 87.5,203.5C 88.5896,204.609 88.5896,205.609 87.5,206.5C 84.0353,206.581 80.702,206.581 77.5,206.5 Z"/></g>
<g><path style="opacity:0.996" fill="#0fc0c5" d="M 156.5,181.5 C 157.766,182.09 159.099,182.59 160.5,183C 158.405,183.556 158.238,184.056 160,184.5C 163.01,183.84 165.843,183.84 168.5,184.5C 167.282,185.803 167.615,186.803 169.5,187.5C 168.96,188.748 168.293,189.915 167.5,191C 168.167,191.333 168.833,191.667 169.5,192C 168.328,192.419 167.328,193.085 166.5,194C 168.01,194.85 169.51,195.683 171,196.5C 173.366,195.062 173.866,195.562 172.5,198C 173.833,198.667 175.167,199.333 176.5,200C 175.542,201.147 175.875,202.147 177.5,203C 176.167,204.84 176.334,205.34 178,204.5C 178.5,205 179,205.5 179.5,206C 177.906,209.319 178.74,210.485 182,209.5C 183.169,210.009 184.002,210.842 184.5,212C 182.447,213.202 180.447,213.536 178.5,213C 179.759,213.923 181.092,214.757 182.5,215.5C 181.494,216.396 181.494,217.062 182.5,217.5C 183.814,216.687 184.981,215.687 186,214.5C 186.507,215.996 186.007,217.163 184.5,218C 185.624,218.249 186.624,218.749 187.5,219.5C 185.035,220.431 182.202,221.431 179,222.5C 178.667,221.5 178.333,220.5 178,219.5C 177.405,221.881 176.905,223.881 176.5,225.5C 170.665,225.034 164.999,225.034 159.5,225.5C 155.524,224.705 151.524,224.038 147.5,223.5C 151,222.831 154.667,222.664 158.5,223C 154.349,218.943 155.349,216.61 161.5,216C 160.833,215.667 160.167,215.333 159.5,215C 160.833,214.333 160.833,213.667 159.5,213C 160.833,213 162.167,213 163.5,213C 161.136,211.988 159.802,210.655 159.5,209C 161.004,207.663 162.004,205.996 162.5,204C 161.151,203.228 160.318,202.061 160,200.5C 158.913,202.932 158.413,202.598 158.5,199.5C 159.552,199.649 160.552,199.483 161.5,199C 158.891,196.567 156.891,194.234 155.5,192C 158.167,190.333 158.167,188.667 155.5,187C 156.5,186.667 157.5,186.333 158.5,186C 156.285,184.956 153.952,184.29 151.5,184C 152.653,182.117 154.319,181.284 156.5,181.5 Z"/></g>
<g><path style="opacity:0.997" fill="#15c3c4" d="M 156.5,181.5 C 156.5,181.167 156.5,180.833 156.5,180.5C 165.993,182.346 175.327,184.346 184.5,186.5C 186.838,188.04 189.505,188.706 192.5,188.5C 192.507,191.038 192.841,193.538 193.5,196C 193.32,198.241 192.487,198.741 191,197.5C 190.25,198.126 189.416,198.626 188.5,199C 190.18,199.347 191.18,200.347 191.5,202C 190.576,203.15 190.576,204.15 191.5,205C 190.833,205.333 190.167,205.667 189.5,206C 192.509,208.552 193.842,211.552 193.5,215C 191.122,215.974 191.456,216.641 194.5,217C 195.061,218.566 194.394,219.899 192.5,221C 193.293,222.085 193.96,223.252 194.5,224.5C 193.726,225.711 192.893,225.711 192,224.5C 190,229.833 188,229.833 186,224.5C 185.15,225.424 184.15,225.424 183,224.5C 181.829,225.34 180.662,226.173 179.5,227C 180.167,227.333 180.833,227.667 181.5,228C 178.335,227.633 175.335,227.799 172.5,228.5C 171.508,228.328 170.842,228.662 170.5,229.5C 169.508,229.672 168.842,229.338 168.5,228.5C 166.41,226.835 163.41,225.835 159.5,225.5C 164.999,225.034 170.665,225.034 176.5,225.5C 176.905,223.881 177.405,221.881 178,219.5C 178.333,220.5 178.667,221.5 179,222.5C 182.202,221.431 185.035,220.431 187.5,219.5C 186.624,218.749 185.624,218.249 184.5,218C 186.007,217.163 186.507,215.996 186,214.5C 184.981,215.687 183.814,216.687 182.5,217.5C 181.494,217.062 181.494,216.396 182.5,215.5C 181.092,214.757 179.759,213.923 178.5,213C 180.447,213.536 182.447,213.202 184.5,212C 184.002,210.842 183.169,210.009 182,209.5C 178.74,210.485 177.906,209.319 179.5,206C 179,205.5 178.5,205 178,204.5C 176.334,205.34 176.167,204.84 177.5,203C 175.875,202.147 175.542,201.147 176.5,200C 175.167,199.333 173.833,198.667 172.5,198C 173.866,195.562 173.366,195.062 171,196.5C 169.51,195.683 168.01,194.85 166.5,194C 167.328,193.085 168.328,192.419 169.5,192C 168.833,191.667 168.167,191.333 167.5,191C 168.293,189.915 168.96,188.748 169.5,187.5C 167.615,186.803 167.282,185.803 168.5,184.5C 165.843,183.84 163.01,183.84 160,184.5C 158.238,184.056 158.405,183.556 160.5,183C 159.099,182.59 157.766,182.09 156.5,181.5 Z"/></g>
<g><path style="opacity:0.004" fill="#00fffe" d="M 53.5,187.5 C 52.8333,188.167 52.8333,188.167 53.5,187.5 Z"/></g>
<g><path style="opacity:0.997" fill="#1cc5c4" d="M 184.5,186.5 C 185.833,186.5 187.167,186.5 188.5,186.5C 194.751,187.233 200.751,188.566 206.5,190.5C 209.266,192.446 212.932,193.779 217.5,194.5C 216.737,195.268 215.737,195.768 214.5,196C 215.869,198.239 215.369,200.073 213,201.5C 211.135,199.145 208.969,198.978 206.5,201C 206.888,202.808 206.888,204.475 206.5,206C 208.047,206.333 209.38,205.833 210.5,204.5C 211.223,206.164 210.89,207.831 209.5,209.5C 209.824,214.658 210.158,217.992 210.5,219.5C 207.402,219.413 207.068,219.913 209.5,221C 208.167,221.667 208.167,222.333 209.5,223C 207.203,224.16 207.536,225.16 210.5,226C 209.289,227.113 209.289,228.28 210.5,229.5C 208.862,230.705 208.529,232.038 209.5,233.5C 208.645,234.293 207.811,233.96 207,232.5C 205.961,233.244 205.461,234.244 205.5,235.5C 201.779,235.089 198.112,234.422 194.5,233.5C 187.278,231.84 179.945,230.174 172.5,228.5C 175.335,227.799 178.335,227.633 181.5,228C 180.833,227.667 180.167,227.333 179.5,227C 180.662,226.173 181.829,225.34 183,224.5C 184.15,225.424 185.15,225.424 186,224.5C 188,229.833 190,229.833 192,224.5C 192.893,225.711 193.726,225.711 194.5,224.5C 193.96,223.252 193.293,222.085 192.5,221C 194.394,219.899 195.061,218.566 194.5,217C 191.456,216.641 191.122,215.974 193.5,215C 193.842,211.552 192.509,208.552 189.5,206C 190.167,205.667 190.833,205.333 191.5,205C 190.576,204.15 190.576,203.15 191.5,202C 191.18,200.347 190.18,199.347 188.5,199C 189.416,198.626 190.25,198.126 191,197.5C 192.487,198.741 193.32,198.241 193.5,196C 192.841,193.538 192.507,191.038 192.5,188.5C 189.505,188.706 186.838,188.04 184.5,186.5 Z"/></g>
<g><path style="opacity:0.997" fill="#22c8c3" d="M 217.5,194.5 C 222.117,194.357 222.784,196.024 219.5,199.5C 221.022,201.156 220.689,202.323 218.5,203C 220.891,204.309 220.891,205.309 218.5,206C 219.167,206.333 219.833,206.667 220.5,207C 219.576,207.85 219.576,208.85 220.5,210C 220.095,210.945 219.428,211.612 218.5,212C 219.167,212.333 219.833,212.667 220.5,213C 220.579,214.907 220.246,216.907 219.5,219C 220.167,219.667 220.833,220.333 221.5,221C 220.206,223.09 219.206,225.09 218.5,227C 219.833,228 221.167,229 222.5,230C 221.213,231.41 220.046,232.91 219,234.5C 218.086,233.346 217.253,233.513 216.5,235C 220.494,236.46 220.494,237.627 216.5,238.5C 212.686,237.964 209.019,236.964 205.5,235.5C 205.461,234.244 205.961,233.244 207,232.5C 207.811,233.96 208.645,234.293 209.5,233.5C 208.529,232.038 208.862,230.705 210.5,229.5C 209.289,228.28 209.289,227.113 210.5,226C 207.536,225.16 207.203,224.16 209.5,223C 208.167,222.333 208.167,221.667 209.5,221C 207.068,219.913 207.402,219.413 210.5,219.5C 210.158,217.992 209.824,214.658 209.5,209.5C 210.89,207.831 211.223,206.164 210.5,204.5C 209.38,205.833 208.047,206.333 206.5,206C 206.888,204.475 206.888,202.808 206.5,201C 208.969,198.978 211.135,199.145 213,201.5C 215.369,200.073 215.869,198.239 214.5,196C 215.737,195.768 216.737,195.268 217.5,194.5 Z"/></g>
<g><path style="opacity:0.997" fill="#28cac4" d="M 206.5,190.5 C 212.46,191.075 218.126,192.408 223.5,194.5C 224.347,195.966 225.68,196.8 227.5,197C 227.835,198.164 227.835,199.497 227.5,201C 228.313,202.314 229.313,203.481 230.5,204.5C 229.738,204.911 228.738,205.077 227.5,205C 228.167,206 228.833,207 229.5,208C 229.507,209.583 229.174,211.249 228.5,213C 231.078,215.157 231.078,216.323 228.5,216.5C 230.335,217.428 230.668,218.594 229.5,220C 230.167,220.333 230.833,220.667 231.5,221C 230.483,222.049 230.316,223.216 231,224.5C 231.667,225.833 232.333,225.833 233,224.5C 233.658,226.108 233.158,227.275 231.5,228C 231.694,229.903 231.694,231.737 231.5,233.5C 227.531,235.404 227.697,237.07 232,238.5C 232.281,240.905 231.615,240.905 230,238.5C 228.591,239.781 227.091,240.781 225.5,241.5C 222.341,240.669 219.341,239.669 216.5,238.5C 220.494,237.627 220.494,236.46 216.5,235C 217.253,233.513 218.086,233.346 219,234.5C 220.046,232.91 221.213,231.41 222.5,230C 221.167,229 219.833,228 218.5,227C 219.206,225.09 220.206,223.09 221.5,221C 220.833,220.333 220.167,219.667 219.5,219C 220.246,216.907 220.579,214.907 220.5,213C 219.833,212.667 219.167,212.333 218.5,212C 219.428,211.612 220.095,210.945 220.5,210C 219.576,208.85 219.576,207.85 220.5,207C 219.833,206.667 219.167,206.333 218.5,206C 220.891,205.309 220.891,204.309 218.5,203C 220.689,202.323 221.022,201.156 219.5,199.5C 222.784,196.024 222.117,194.357 217.5,194.5C 212.932,193.779 209.266,192.446 206.5,190.5 Z"/></g>
<g><path style="opacity:0.997" fill="#2fccc3" d="M 223.5,194.5 C 229.351,196.116 235.018,198.116 240.5,200.5C 245.322,201.998 249.322,204.664 252.5,208.5C 249.222,206.523 245.889,204.523 242.5,202.5C 241.692,202.808 241.025,203.308 240.5,204C 241.672,204.419 242.672,205.085 243.5,206C 240.214,207.035 239.88,208.535 242.5,210.5C 241.975,211.192 241.308,211.692 240.5,212C 241.641,212.741 241.641,213.575 240.5,214.5C 245.499,216.597 246.499,219.763 243.5,224C 245.167,225 246.833,226 248.5,227C 247.981,229.026 247.647,231.026 247.5,233C 248.085,234.302 248.751,235.469 249.5,236.5C 248.997,239.612 250.331,242.112 253.5,244C 252.572,244.388 251.905,245.055 251.5,246C 252.078,247.811 252.578,249.645 253,251.5C 253.654,252.696 254.154,252.696 254.5,251.5C 253.754,250.264 253.421,248.93 253.5,247.5C 255.06,247.481 256.56,247.148 258,246.5C 259.171,247.34 260.338,248.173 261.5,249C 261,249.5 260.5,250 260,250.5C 259.163,248.993 257.996,248.493 256.5,249C 257.641,249.741 257.641,250.575 256.5,251.5C 258.991,252.541 258.991,253.374 256.5,254C 258.481,254.605 258.815,255.605 257.5,257C 259.886,257.284 260.552,258.284 259.5,260C 262.544,260.359 262.878,261.026 260.5,262C 262.795,262.984 262.461,263.817 259.5,264.5C 258.056,263.019 257.389,263.352 257.5,265.5C 249.859,253.658 239.192,245.658 225.5,241.5C 227.091,240.781 228.591,239.781 230,238.5C 231.615,240.905 232.281,240.905 232,238.5C 227.697,237.07 227.531,235.404 231.5,233.5C 231.694,231.737 231.694,229.903 231.5,228C 233.158,227.275 233.658,226.108 233,224.5C 232.333,225.833 231.667,225.833 231,224.5C 230.316,223.216 230.483,222.049 231.5,221C 230.833,220.667 230.167,220.333 229.5,220C 230.668,218.594 230.335,217.428 228.5,216.5C 231.078,216.323 231.078,215.157 228.5,213C 229.174,211.249 229.507,209.583 229.5,208C 228.833,207 228.167,206 227.5,205C 228.738,205.077 229.738,204.911 230.5,204.5C 229.313,203.481 228.313,202.314 227.5,201C 227.835,199.497 227.835,198.164 227.5,197C 225.68,196.8 224.347,195.966 223.5,194.5 Z"/></g>
<g><path style="opacity:0.996" fill="#35cfc2" d="M 252.5,208.5 C 257.131,211.464 261.131,215.131 264.5,219.5C 264.328,220.492 264.662,221.158 265.5,221.5C 266.11,222.391 266.443,223.391 266.5,224.5C 271.558,235.4 272.724,246.734 270,258.5C 268.044,253.816 267.544,249.316 268.5,245C 267.289,244.213 266.289,243.546 265.5,243C 267.421,241.195 268.088,239.195 267.5,237C 264.43,237.58 261.597,236.747 259,234.5C 258,234.833 257,235.167 256,235.5C 255.175,233.299 255.675,231.466 257.5,230C 256.552,229.517 255.552,229.351 254.5,229.5C 254.657,230.873 254.49,232.207 254,233.5C 253.667,232.833 253.333,232.167 253,231.5C 251.198,232.789 250.031,234.456 249.5,236.5C 248.751,235.469 248.085,234.302 247.5,233C 247.647,231.026 247.981,229.026 248.5,227C 246.833,226 245.167,225 243.5,224C 246.499,219.763 245.499,216.597 240.5,214.5C 241.641,213.575 241.641,212.741 240.5,212C 241.308,211.692 241.975,211.192 242.5,210.5C 239.88,208.535 240.214,207.035 243.5,206C 242.672,205.085 241.672,204.419 240.5,204C 241.025,203.308 241.692,202.808 242.5,202.5C 245.889,204.523 249.222,206.523 252.5,208.5 Z"/></g>
<g><path style="opacity:0.012" fill="#00aaa9" d="M 96.5,215.5 C 95.8333,214.167 95.8333,214.167 96.5,215.5 Z"/></g>
<g><path style="opacity:0.004" fill="#00fffe" d="M 96.5,215.5 C 97.8333,216.167 97.8333,216.167 96.5,215.5 Z"/></g>
<g><path style="opacity:0.004" fill="#00e9e9" d="M 100.5,215.5 C 100.103,216.525 99.4368,216.692 98.5,216C 99.0944,215.536 99.7611,215.369 100.5,215.5 Z"/></g>
<g><path style="opacity:0.004" fill="#00fffe" d="M 264.5,218.5 C 265.833,219.167 265.833,219.167 264.5,218.5 Z"/></g>
<g><path style="opacity:0.016" fill="#7fbfbe" d="M 266.5,218.5 C 267.833,219.167 267.833,219.167 266.5,218.5 Z"/></g>
<g><path style="opacity:0.008" fill="#68fffe" d="M 265.5,221.5 C 265.897,220.475 266.563,220.308 267.5,221C 266.906,221.464 266.239,221.631 265.5,221.5 Z"/></g>
<g><path style="opacity:0.008" fill="#007f7e" d="M 116.5,223.5 C 117.833,224.167 117.833,224.167 116.5,223.5 Z"/></g>
<g><path style="opacity:1" fill="#19a19c" d="M 112.5,217.5 C 112.917,216.876 113.584,216.543 114.5,216.5C 125.519,218.946 136.519,221.279 147.5,223.5C 151.524,224.038 155.524,224.705 159.5,225.5C 163.41,225.835 166.41,226.835 168.5,228.5C 149.731,225.346 131.064,221.68 112.5,217.5 Z"/></g>
<g><path style="opacity:0.004" fill="#00fffe" d="M 161.5,228.5 C 162.833,229.167 162.833,229.167 161.5,228.5 Z"/></g>
<g><path style="opacity:0.012" fill="#00aaa9" d="M 159.5,230.5 C 160.833,231.167 160.833,231.167 159.5,230.5 Z"/></g>
<g><path style="opacity:0.004" fill="#00fffe" d="M 52.5,233.5 C 53.8333,234.167 53.8333,234.167 52.5,233.5 Z"/></g>
<g><path style="opacity:0.012" fill="#00aaa9" d="M 59.5,233.5 C 60.8333,234.167 60.8333,234.167 59.5,233.5 Z"/></g>
<g><path style="opacity:0.004" fill="#00fffe" d="M 272.5,233.5 C 273.833,234.167 273.833,234.167 272.5,233.5 Z"/></g>
<g><path style="opacity:0.004" fill="#00fffe" d="M 53.5,235.5 C 54.8333,236.167 54.8333,236.167 53.5,235.5 Z"/></g>
<g><path style="opacity:0.008" fill="#007f7e" d="M 59.5,235.5 C 60.8333,236.167 60.8333,236.167 59.5,235.5 Z"/></g>
<g><path style="opacity:0.012" fill="#00aaa9" d="M 188.5,239.5 C 189.833,240.167 189.833,240.167 188.5,239.5 Z"/></g>
<g><path style="opacity:0.997" fill="#0097a6" d="M 59.5,238.5 C 60.6005,239.605 61.2671,240.938 61.5,242.5C 61.7086,243.922 62.2086,245.255 63,246.5C 65.5402,248.705 67.7068,251.205 69.5,254C 68.6598,255.666 69.1598,255.833 71,254.5C 71.5,255.667 72.3333,256.5 73.5,257C 73.1667,257.333 72.8333,257.667 72.5,258C 74.7151,259.943 74.7151,261.609 72.5,263C 73.1667,263.667 73.8333,264.333 74.5,265C 74.1313,267.552 74.1313,270.219 74.5,273C 72.5406,274.684 72.5406,276.684 74.5,279C 73.8333,279.333 73.1667,279.667 72.5,280C 76.0654,283.849 76.0654,287.849 72.5,292C 73.8045,292.804 74.4712,293.971 74.5,295.5C 73.5893,298.082 71.9226,300.082 69.5,301.5C 68.6143,300.675 68.281,299.675 68.5,298.5C 66.8007,298.473 65.4674,297.806 64.5,296.5C 65.2299,295.288 66.2299,294.288 67.5,293.5C 66.9747,292.808 66.3081,292.308 65.5,292C 65.6651,290.883 65.9984,289.716 66.5,288.5C 65.5,287.833 64.5,287.167 63.5,286.5C 64.6507,285.269 65.8173,285.269 67,286.5C 66.9536,284.687 67.1203,283.021 67.5,281.5C 65.7544,278.733 65.4211,275.899 66.5,273C 65.6721,272.085 64.6721,271.419 63.5,271C 66.0099,267.845 67.3433,264.511 67.5,261C 65.6992,260.683 65.3659,260.016 66.5,259C 64.6992,258.683 64.3659,258.016 65.5,257C 63.0674,254.799 61.4008,252.133 60.5,249C 58.3136,247.691 56.1469,247.524 54,248.5C 53.3076,247.975 52.8076,247.308 52.5,246.5C 53.6948,244.249 54.6948,241.915 55.5,239.5C 56.6888,238.571 58.0222,238.238 59.5,238.5 Z"/></g>
<g><path style="opacity:0.996" fill="#0192a0" d="M 59.5,236.5 C 59.5,237.167 59.5,237.833 59.5,238.5C 58.0222,238.238 56.6888,238.571 55.5,239.5C 54.6948,241.915 53.6948,244.249 52.5,246.5C 52.8076,247.308 53.3076,247.975 54,248.5C 56.1469,247.524 58.3136,247.691 60.5,249C 61.4008,252.133 63.0674,254.799 65.5,257C 64.3659,258.016 64.6992,258.683 66.5,259C 65.3659,260.016 65.6992,260.683 67.5,261C 67.3433,264.511 66.0099,267.845 63.5,271C 64.6721,271.419 65.6721,272.085 66.5,273C 65.4211,275.899 65.7544,278.733 67.5,281.5C 67.1203,283.021 66.9536,284.687 67,286.5C 65.8173,285.269 64.6507,285.269 63.5,286.5C 64.5,287.167 65.5,287.833 66.5,288.5C 65.9984,289.716 65.6651,290.883 65.5,292C 66.3081,292.308 66.9747,292.808 67.5,293.5C 66.2299,294.288 65.2299,295.288 64.5,296.5C 63.5041,296.586 62.6708,296.252 62,295.5C 60.573,293.295 60.073,291.128 60.5,289C 56.8217,288.991 54.6551,287.157 54,283.5C 53.6012,283.728 53.4346,284.062 53.5,284.5C 52.2237,282.438 51.3903,280.104 51,277.5C 50.8288,269.989 50.3288,262.655 49.5,255.5C 50.2731,247.978 52.6064,241.478 56.5,236C 57.5768,235.53 58.5768,235.697 59.5,236.5 Z"/></g>
<g><path style="opacity:0.996" fill="#007e8f" d="M 194.5,233.5 C 198.112,234.422 201.779,235.089 205.5,235.5C 209.019,236.964 212.686,237.964 216.5,238.5C 219.341,239.669 222.341,240.669 225.5,241.5C 239.192,245.658 249.859,253.658 257.5,265.5C 258.566,267.701 259.233,270.035 259.5,272.5C 259.5,274.833 259.5,277.167 259.5,279.5C 258.566,278.432 258.232,277.099 258.5,275.5C 254.282,274.162 249.949,272.996 245.5,272C 244.354,269.856 242.854,268.023 241,266.5C 240.228,266.645 239.561,266.978 239,267.5C 237.529,264.633 235.362,263.633 232.5,264.5C 231.808,263.975 231.308,263.308 231,262.5C 230.667,262.833 230.333,263.167 230,263.5C 229.5,262.333 228.667,261.5 227.5,261C 227.833,260.667 228.167,260.333 228.5,260C 226.598,259.801 225.098,258.967 224,257.5C 223.586,257.957 223.086,258.291 222.5,258.5C 220.136,256.637 217.636,254.971 215,253.5C 214.667,253.833 214.333,254.167 214,254.5C 212.872,252.655 212.372,250.655 212.5,248.5C 209.579,248.854 207.246,247.854 205.5,245.5C 204.748,242.737 203.748,240.07 202.5,237.5C 199.436,236.717 196.769,235.384 194.5,233.5 Z"/></g>
<g><path style="opacity:0.008" fill="#007f7e" d="M 44.5,249.5 C 45.8333,250.167 45.8333,250.167 44.5,249.5 Z"/></g>
<g><path style="opacity:0.004" fill="#00fffe" d="M 73.5,249.5 C 74.8333,250.167 74.8333,250.167 73.5,249.5 Z"/></g>
<g><path style="opacity:0.995" fill="#34ccc0" d="M 266.5,224.5 C 268.64,226.7 270.14,229.367 271,232.5C 274.565,244.607 273.732,256.607 268.5,268.5C 265.961,271.784 263.461,275.784 261,280.5C 260.605,278.821 260.772,277.155 261.5,275.5C 261.547,273.962 260.88,272.962 259.5,272.5C 259.233,270.035 258.566,267.701 257.5,265.5C 257.389,263.352 258.056,263.019 259.5,264.5C 262.461,263.817 262.795,262.984 260.5,262C 262.878,261.026 262.544,260.359 259.5,260C 260.552,258.284 259.886,257.284 257.5,257C 258.815,255.605 258.481,254.605 256.5,254C 258.991,253.374 258.991,252.541 256.5,251.5C 257.641,250.575 257.641,249.741 256.5,249C 257.996,248.493 259.163,248.993 260,250.5C 260.5,250 261,249.5 261.5,249C 260.338,248.173 259.171,247.34 258,246.5C 256.56,247.148 255.06,247.481 253.5,247.5C 253.421,248.93 253.754,250.264 254.5,251.5C 254.154,252.696 253.654,252.696 253,251.5C 252.578,249.645 252.078,247.811 251.5,246C 251.905,245.055 252.572,244.388 253.5,244C 250.331,242.112 248.997,239.612 249.5,236.5C 250.031,234.456 251.198,232.789 253,231.5C 253.333,232.167 253.667,232.833 254,233.5C 254.49,232.207 254.657,230.873 254.5,229.5C 255.552,229.351 256.552,229.517 257.5,230C 255.675,231.466 255.175,233.299 256,235.5C 257,235.167 258,234.833 259,234.5C 261.597,236.747 264.43,237.58 267.5,237C 268.088,239.195 267.421,241.195 265.5,243C 266.289,243.546 267.289,244.213 268.5,245C 267.544,249.316 268.044,253.816 270,258.5C 272.724,246.734 271.558,235.4 266.5,224.5 Z"/></g>
<g><path style="opacity:0.012" fill="#00aaa9" d="M 47.5,255.5 C 48.8333,256.167 48.8333,256.167 47.5,255.5 Z"/></g>
<g><path style="opacity:0.997" fill="#019dac" d="M 61.5,242.5 C 69.2079,252.208 79.2079,258.708 91.5,262C 98.4607,264.323 105.461,266.49 112.5,268.5C 111.432,269.434 110.099,269.768 108.5,269.5C 103.795,267.265 98.7951,265.598 93.5,264.5C 91.2779,263.312 88.9446,262.312 86.5,261.5C 84.2985,263.056 84.2985,264.223 86.5,265C 84.9907,266.674 84.3241,268.34 84.5,270C 86.2464,270.471 87.913,271.138 89.5,272C 87.3985,273.733 87.0652,275.733 88.5,278C 87.8333,278.333 87.1667,278.667 86.5,279C 87.2117,281.027 88.2117,282.027 89.5,282C 89.2231,283.892 88.2231,285.225 86.5,286C 87.8333,287 89.1667,288 90.5,289C 89.3279,289.419 88.3279,290.085 87.5,291C 87.4951,296.546 87.9951,301.379 89,305.5C 83.9222,304.455 78.7555,304.455 73.5,305.5C 64.0852,301.086 57.4185,294.086 53.5,284.5C 53.4346,284.062 53.6012,283.728 54,283.5C 54.6551,287.157 56.8217,288.991 60.5,289C 60.073,291.128 60.573,293.295 62,295.5C 62.6708,296.252 63.5041,296.586 64.5,296.5C 65.4674,297.806 66.8007,298.473 68.5,298.5C 68.281,299.675 68.6143,300.675 69.5,301.5C 71.9226,300.082 73.5893,298.082 74.5,295.5C 74.4712,293.971 73.8045,292.804 72.5,292C 76.0654,287.849 76.0654,283.849 72.5,280C 73.1667,279.667 73.8333,279.333 74.5,279C 72.5406,276.684 72.5406,274.684 74.5,273C 74.1313,270.219 74.1313,267.552 74.5,265C 73.8333,264.333 73.1667,263.667 72.5,263C 74.7151,261.609 74.7151,259.943 72.5,258C 72.8333,257.667 73.1667,257.333 73.5,257C 72.3333,256.5 71.5,255.667 71,254.5C 69.1598,255.833 68.6598,255.666 69.5,254C 67.7068,251.205 65.5402,248.705 63,246.5C 62.2086,245.255 61.7086,243.922 61.5,242.5 Z"/></g>
<g><path style="opacity:0.997" fill="#018e9d" d="M 170.5,229.5 C 170.842,228.662 171.508,228.328 172.5,228.5C 179.945,230.174 187.278,231.84 194.5,233.5C 196.769,235.384 199.436,236.717 202.5,237.5C 203.748,240.07 204.748,242.737 205.5,245.5C 207.246,247.854 209.579,248.854 212.5,248.5C 212.372,250.655 212.872,252.655 214,254.5C 214.333,254.167 214.667,253.833 215,253.5C 217.636,254.971 220.136,256.637 222.5,258.5C 223.086,258.291 223.586,257.957 224,257.5C 225.098,258.967 226.598,259.801 228.5,260C 228.167,260.333 227.833,260.667 227.5,261C 228.667,261.5 229.5,262.333 230,263.5C 230.333,263.167 230.667,262.833 231,262.5C 231.308,263.308 231.808,263.975 232.5,264.5C 235.362,263.633 237.529,264.633 239,267.5C 239.561,266.978 240.228,266.645 241,266.5C 242.854,268.023 244.354,269.856 245.5,272C 249.949,272.996 254.282,274.162 258.5,275.5C 258.232,277.099 258.566,278.432 259.5,279.5C 259.5,280.167 259.5,280.833 259.5,281.5C 255.491,281.11 251.824,279.776 248.5,277.5C 247.914,277.709 247.414,278.043 247,278.5C 245.64,276.895 244.14,275.395 242.5,274C 231.956,269.169 221.956,265.003 212.5,261.5C 210.601,259.169 209.434,256.502 209,253.5C 208.667,257.167 208.333,260.833 208,264.5C 207.819,261.305 207.319,258.305 206.5,255.5C 205.9,248.137 202.567,242.304 196.5,238C 188.383,233.461 179.716,230.628 170.5,229.5 Z"/></g>
<g><path style="opacity:0.996" fill="#00a5b4" d="M 93.5,264.5 C 94.2905,265.401 95.2905,266.068 96.5,266.5C 92.5063,267.373 92.5063,268.54 96.5,270C 93.9485,271.516 94.2819,272.349 97.5,272.5C 97.7114,275.616 98.0447,278.45 98.5,281C 96.1088,282.309 96.1088,283.309 98.5,284C 95.4557,284.359 95.1224,285.026 97.5,286C 96.6721,286.915 95.6721,287.581 94.5,288C 95.1905,289.067 95.6905,290.234 96,291.5C 96.6493,288.063 97.1493,287.896 97.5,291C 97.0548,292.447 96.3881,293.78 95.5,295C 96.8291,296.66 97.8291,298.493 98.5,300.5C 98.5,302.5 98.5,304.5 98.5,306.5C 100.542,307.503 100.875,308.837 99.5,310.5C 100.025,311.192 100.692,311.692 101.5,312C 99.1902,312.497 96.8568,312.663 94.5,312.5C 87.2128,311.023 80.2128,308.689 73.5,305.5C 78.7555,304.455 83.9222,304.455 89,305.5C 87.9951,301.379 87.4951,296.546 87.5,291C 88.3279,290.085 89.3279,289.419 90.5,289C 89.1667,288 87.8333,287 86.5,286C 88.2231,285.225 89.2231,283.892 89.5,282C 88.2117,282.027 87.2117,281.027 86.5,279C 87.1667,278.667 87.8333,278.333 88.5,278C 87.0652,275.733 87.3985,273.733 89.5,272C 87.913,271.138 86.2464,270.471 84.5,270C 84.3241,268.34 84.9907,266.674 86.5,265C 84.2985,264.223 84.2985,263.056 86.5,261.5C 88.9446,262.312 91.2779,263.312 93.5,264.5 Z"/></g>
<g><path style="opacity:0.004" fill="#00fffe" d="M 270.5,265.5 C 271.833,266.167 271.833,266.167 270.5,265.5 Z"/></g>
<g><path style="opacity:0.997" fill="#00abba" d="M 96.5,266.5 C 99.3903,266.527 100.39,267.693 99.5,270C 101.104,271.237 102.771,272.403 104.5,273.5C 104.413,275.703 104.413,277.87 104.5,280C 109.062,281.699 109.395,283.699 105.5,286C 106.376,287.586 107.376,289.086 108.5,290.5C 106.958,290.694 105.625,291.861 104.5,294C 106.632,294.918 107.299,296.251 106.5,298C 107.833,299 109.167,300 110.5,301C 108.156,302.185 107.323,304.018 108,306.5C 108.667,305.167 109.333,303.833 110,302.5C 110.374,303.416 110.874,304.25 111.5,305C 109.813,306.913 109.313,309.08 110,311.5C 110.535,309.729 111.369,309.396 112.5,310.5C 111.995,311.919 110.995,312.585 109.5,312.5C 106.518,312.963 103.518,313.296 100.5,313.5C 98.2646,313.795 96.2646,313.461 94.5,312.5C 96.8568,312.663 99.1902,312.497 101.5,312C 100.692,311.692 100.025,311.192 99.5,310.5C 100.875,308.837 100.542,307.503 98.5,306.5C 98.5,304.5 98.5,302.5 98.5,300.5C 97.8291,298.493 96.8291,296.66 95.5,295C 96.3881,293.78 97.0548,292.447 97.5,291C 97.1493,287.896 96.6493,288.063 96,291.5C 95.6905,290.234 95.1905,289.067 94.5,288C 95.6721,287.581 96.6721,286.915 97.5,286C 95.1224,285.026 95.4557,284.359 98.5,284C 96.1088,283.309 96.1088,282.309 98.5,281C 98.0447,278.45 97.7114,275.616 97.5,272.5C 94.2819,272.349 93.9485,271.516 96.5,270C 92.5063,268.54 92.5063,267.373 96.5,266.5 Z"/></g>
<g><path style="opacity:0.996" fill="#00b2bf" d="M 93.5,264.5 C 98.7951,265.598 103.795,267.265 108.5,269.5C 110.781,270.314 112.781,271.648 114.5,273.5C 113.975,274.192 113.308,274.692 112.5,275C 113.833,276 113.833,277 112.5,278C 114.099,279.066 115.099,280.566 115.5,282.5C 115.08,284.326 115.08,286.326 115.5,288.5C 118.388,288.22 119.888,289.553 120,292.5C 120.333,291.5 120.667,290.5 121,289.5C 122.195,292.225 122.528,294.891 122,297.5C 124.698,296.499 127.198,296.999 129.5,299C 128.874,299.75 128.374,300.584 128,301.5C 127.16,298.536 126.16,298.203 125,300.5C 124.107,299.289 123.274,299.289 122.5,300.5C 123.025,301.192 123.692,301.692 124.5,302C 124.5,304.333 124.5,306.667 124.5,309C 124.833,309.167 125.167,309.333 125.5,309.5C 127.062,305.607 128.395,305.774 129.5,310C 127.413,310.792 125.579,311.959 124,313.5C 119.651,311.747 118.818,312.58 121.5,316C 116.106,316.17 111.106,315.504 106.5,314C 107.737,313.768 108.737,313.268 109.5,312.5C 110.995,312.585 111.995,311.919 112.5,310.5C 111.369,309.396 110.535,309.729 110,311.5C 109.313,309.08 109.813,306.913 111.5,305C 110.874,304.25 110.374,303.416 110,302.5C 109.333,303.833 108.667,305.167 108,306.5C 107.323,304.018 108.156,302.185 110.5,301C 109.167,300 107.833,299 106.5,298C 107.299,296.251 106.632,294.918 104.5,294C 105.625,291.861 106.958,290.694 108.5,290.5C 107.376,289.086 106.376,287.586 105.5,286C 109.395,283.699 109.062,281.699 104.5,280C 104.413,277.87 104.413,275.703 104.5,273.5C 102.771,272.403 101.104,271.237 99.5,270C 100.39,267.693 99.3903,266.527 96.5,266.5C 95.2905,266.068 94.2905,265.401 93.5,264.5 Z"/></g>
<g><path style="opacity:0.997" fill="#01b8c4" d="M 112.5,268.5 C 113.791,268.263 114.791,268.596 115.5,269.5C 114.761,269.369 114.094,269.536 113.5,270C 115.491,270.374 117.158,271.207 118.5,272.5C 122.945,274.198 127.612,275.532 132.5,276.5C 133.968,279.509 135.634,281.676 137.5,283C 136.971,284.559 136.304,286.059 135.5,287.5C 138.375,288.945 140.375,290.779 141.5,293C 140.667,293.833 139.833,294.667 139,295.5C 138.282,294.549 137.449,294.383 136.5,295C 138,295.833 139.167,297 140,298.5C 141.388,297.446 142.888,297.28 144.5,298C 143.747,299.487 142.914,299.654 142,298.5C 141.044,299.579 140.211,300.745 139.5,302C 141.5,303 143.5,304 145.5,305C 144.167,305.667 144.167,306.333 145.5,307C 143.122,307.974 143.456,308.641 146.5,309C 144.947,310.097 143.614,311.43 142.5,313C 142.957,313.414 143.291,313.914 143.5,314.5C 142.5,315.167 141.5,315.833 140.5,316.5C 140.709,317.086 141.043,317.586 141.5,318C 138.305,318.181 135.305,318.681 132.5,319.5C 124.116,318.755 115.783,317.588 107.5,316C 104.809,315.844 102.476,315.011 100.5,313.5C 103.518,313.296 106.518,312.963 109.5,312.5C 108.737,313.268 107.737,313.768 106.5,314C 111.106,315.504 116.106,316.17 121.5,316C 118.818,312.58 119.651,311.747 124,313.5C 125.579,311.959 127.413,310.792 129.5,310C 128.395,305.774 127.062,305.607 125.5,309.5C 125.167,309.333 124.833,309.167 124.5,309C 124.5,306.667 124.5,304.333 124.5,302C 123.692,301.692 123.025,301.192 122.5,300.5C 123.274,299.289 124.107,299.289 125,300.5C 126.16,298.203 127.16,298.536 128,301.5C 128.374,300.584 128.874,299.75 129.5,299C 127.198,296.999 124.698,296.499 122,297.5C 122.528,294.891 122.195,292.225 121,289.5C 120.667,290.5 120.333,291.5 120,292.5C 119.888,289.553 118.388,288.22 115.5,288.5C 115.08,286.326 115.08,284.326 115.5,282.5C 115.099,280.566 114.099,279.066 112.5,278C 113.833,277 113.833,276 112.5,275C 113.308,274.692 113.975,274.192 114.5,273.5C 112.781,271.648 110.781,270.314 108.5,269.5C 110.099,269.768 111.432,269.434 112.5,268.5 Z"/></g>
<g><path style="opacity:0.997" fill="#00a1ae" d="M 259.5,281.5 C 257.866,282.972 256.366,284.638 255,286.5C 254.667,286.167 254.333,285.833 254,285.5C 252.905,286.693 252.072,288.027 251.5,289.5C 250.833,289.5 250.167,289.5 249.5,289.5C 249.062,289.565 248.728,289.399 248.5,289C 250.901,288.195 250.734,287.362 248,286.5C 247.667,286.833 247.333,287.167 247,287.5C 244.158,284.765 240.825,282.765 237,281.5C 236.667,282.167 236.333,282.833 236,283.5C 235.5,282.333 234.667,281.5 233.5,281C 233.833,280.667 234.167,280.333 234.5,280C 233.234,279.691 232.067,279.191 231,278.5C 230.667,278.833 230.333,279.167 230,279.5C 227.994,277.251 225.66,276.584 223,277.5C 221.238,277.056 221.405,276.556 223.5,276C 218.073,275.607 213.24,273.773 209,270.5C 208.667,269.167 208.333,267.833 208,266.5C 207.392,268.066 206.558,269.4 205.5,270.5C 205.5,270.167 205.5,269.833 205.5,269.5C 206.314,264.881 206.647,260.214 206.5,255.5C 207.319,258.305 207.819,261.305 208,264.5C 208.333,260.833 208.667,257.167 209,253.5C 209.434,256.502 210.601,259.169 212.5,261.5C 221.956,265.003 231.956,269.169 242.5,274C 244.14,275.395 245.64,276.895 247,278.5C 247.414,278.043 247.914,277.709 248.5,277.5C 251.824,279.776 255.491,281.11 259.5,281.5 Z"/></g>
<g><path style="opacity:0.004" fill="#00fffe" d="M 47.5,276.5 C 48.525,276.897 48.6917,277.563 48,278.5C 47.5357,277.906 47.369,277.239 47.5,276.5 Z"/></g>
<g><path style="opacity:0.997" fill="#00b6c2" d="M 249.5,289.5 C 248.737,290.268 247.737,290.768 246.5,291C 240.516,291.698 234.516,292.198 228.5,292.5C 219.526,291.456 210.526,290.789 201.5,290.5C 199.123,289.113 196.457,288.279 193.5,288C 193.833,287.667 194.167,287.333 194.5,287C 193.619,286.292 192.953,285.458 192.5,284.5C 198.89,281.776 203.223,277.109 205.5,270.5C 206.558,269.4 207.392,268.066 208,266.5C 208.333,267.833 208.667,269.167 209,270.5C 213.24,273.773 218.073,275.607 223.5,276C 221.405,276.556 221.238,277.056 223,277.5C 225.66,276.584 227.994,277.251 230,279.5C 230.333,279.167 230.667,278.833 231,278.5C 232.067,279.191 233.234,279.691 234.5,280C 234.167,280.333 233.833,280.667 233.5,281C 234.667,281.5 235.5,282.333 236,283.5C 236.333,282.833 236.667,282.167 237,281.5C 240.825,282.765 244.158,284.765 247,287.5C 247.333,287.167 247.667,286.833 248,286.5C 250.734,287.362 250.901,288.195 248.5,289C 248.728,289.399 249.062,289.565 249.5,289.5 Z"/></g>
<g><path style="opacity:0.871" fill="#1bb1ac" d="M 115.5,269.5 C 126.023,272.464 136.69,274.797 147.5,276.5C 161.412,280.817 175.745,282.984 190.5,283C 197.593,280.737 202.593,276.237 205.5,269.5C 205.5,269.833 205.5,270.167 205.5,270.5C 203.223,277.109 198.89,281.776 192.5,284.5C 180.362,284.958 168.362,283.625 156.5,280.5C 143.856,277.705 131.19,275.038 118.5,272.5C 117.158,271.207 115.491,270.374 113.5,270C 114.094,269.536 114.761,269.369 115.5,269.5 Z"/></g>
<g><path style="opacity:0.008" fill="#00fffe" d="M 150.5,275.5 C 151.833,276.167 151.833,276.167 150.5,275.5 Z"/></g>
<g><path style="opacity:0.004" fill="#00fffe" d="M 147.5,275.5 C 148.833,276.167 148.833,276.167 147.5,275.5 Z"/></g>
<g><path style="opacity:0.004" fill="#00fffe" d="M 49.5,279.5 C 48.8333,280.167 48.8333,280.167 49.5,279.5 Z"/></g>
<g><path style="opacity:0.012" fill="#00aaa9" d="M 173.5,280.5 C 174.833,281.167 174.833,281.167 173.5,280.5 Z"/></g>
<g><path style="opacity:0.996" fill="#09bec6" d="M 118.5,272.5 C 131.19,275.038 143.856,277.705 156.5,280.5C 156.5,280.833 156.5,281.167 156.5,281.5C 156.859,283.766 156.192,285.599 154.5,287C 155.469,288.758 156.636,289.258 158,288.5C 157.232,290.818 158.066,292.651 160.5,294C 159.655,295.558 160.321,296.558 162.5,297C 161.075,298.714 161.408,300.047 163.5,301C 161.875,301.853 161.542,302.853 162.5,304C 161.262,303.923 160.262,304.089 159.5,304.5C 159.844,307.036 160.844,309.203 162.5,311C 162.43,312.624 161.93,314.457 161,316.5C 160.346,315.304 159.846,315.304 159.5,316.5C 160.34,317.735 161.34,318.735 162.5,319.5C 159.287,319.19 156.287,319.523 153.5,320.5C 148.305,320.179 143.305,320.513 138.5,321.5C 136.833,321.5 135.167,321.5 133.5,321.5C 134.263,320.732 135.263,320.232 136.5,320C 135.207,319.51 133.873,319.343 132.5,319.5C 135.305,318.681 138.305,318.181 141.5,318C 141.043,317.586 140.709,317.086 140.5,316.5C 141.5,315.833 142.5,315.167 143.5,314.5C 143.291,313.914 142.957,313.414 142.5,313C 143.614,311.43 144.947,310.097 146.5,309C 143.456,308.641 143.122,307.974 145.5,307C 144.167,306.333 144.167,305.667 145.5,305C 143.5,304 141.5,303 139.5,302C 140.211,300.745 141.044,299.579 142,298.5C 142.914,299.654 143.747,299.487 144.5,298C 142.888,297.28 141.388,297.446 140,298.5C 139.167,297 138,295.833 136.5,295C 137.449,294.383 138.282,294.549 139,295.5C 139.833,294.667 140.667,293.833 141.5,293C 140.375,290.779 138.375,288.945 135.5,287.5C 136.304,286.059 136.971,284.559 137.5,283C 135.634,281.676 133.968,279.509 132.5,276.5C 127.612,275.532 122.945,274.198 118.5,272.5 Z"/></g>
<g><path style="opacity:0.004" fill="#00fffe" d="M 184.5,281.5 C 185.833,282.167 185.833,282.167 184.5,281.5 Z"/></g>
<g><path style="opacity:0.984" fill="#21b0ab" d="M 268.5,268.5 C 265.917,276.682 261.584,283.682 255.5,289.5C 254.368,288.646 253.035,288.646 251.5,289.5C 252.072,288.027 252.905,286.693 254,285.5C 254.333,285.833 254.667,286.167 255,286.5C 256.366,284.638 257.866,282.972 259.5,281.5C 259.5,280.833 259.5,280.167 259.5,279.5C 259.5,277.167 259.5,274.833 259.5,272.5C 260.88,272.962 261.547,273.962 261.5,275.5C 260.772,277.155 260.605,278.821 261,280.5C 263.461,275.784 265.961,271.784 268.5,268.5 Z"/></g>
<g><path style="opacity:0.997" fill="#17c5c5" d="M 156.5,281.5 C 156.5,281.167 156.5,280.833 156.5,280.5C 168.362,283.625 180.362,284.958 192.5,284.5C 192.953,285.458 193.619,286.292 194.5,287C 194.167,287.333 193.833,287.667 193.5,288C 196.457,288.279 199.123,289.113 201.5,290.5C 203.042,291.163 204.709,291.83 206.5,292.5C 205.494,293.396 205.494,294.062 206.5,294.5C 207.251,293.624 207.751,292.624 208,291.5C 210.589,292.208 212.755,293.541 214.5,295.5C 212.525,296.749 212.191,298.249 213.5,300C 210.843,304.531 207.343,306.031 203,304.5C 202.833,304.833 202.667,305.167 202.5,305.5C 203.729,306.281 205.062,306.781 206.5,307C 205.747,308.487 204.914,308.654 204,307.5C 203.626,308.416 203.126,309.25 202.5,310C 206.531,312.206 206.364,312.706 202,311.5C 200,312.167 198,312.833 196,313.5C 195.667,313.167 195.333,312.833 195,312.5C 194.544,313.744 195.044,314.577 196.5,315C 195.91,316.299 194.91,317.132 193.5,317.5C 189.008,318.051 184.674,318.718 180.5,319.5C 171.682,320.493 162.682,320.827 153.5,320.5C 156.287,319.523 159.287,319.19 162.5,319.5C 167.959,319.897 173.292,319.397 178.5,318C 176.396,317.511 176.062,316.345 177.5,314.5C 174.991,312.41 175.325,310.577 178.5,309C 177.484,307.323 176.484,305.657 175.5,304C 176.506,302.662 177.506,301.329 178.5,300C 177.251,298.176 176.085,298.343 175,300.5C 174.807,297.577 173.974,294.744 172.5,292C 173.711,290.887 173.711,289.72 172.5,288.5C 174.274,287.813 175.941,286.98 177.5,286C 174.628,285.685 171.795,285.185 169,284.5C 168.454,285.289 167.787,286.289 167,287.5C 164.576,283.568 161.076,281.568 156.5,281.5 Z"/></g>
<g><path style="opacity:0.008" fill="#00ff7e" d="M 259.5,286.5 C 260.833,287.167 260.833,287.167 259.5,286.5 Z"/></g>
<g><path style="opacity:0.004" fill="#00fffe" d="M 50.5,287.5 C 51.8333,288.167 51.8333,288.167 50.5,287.5 Z"/></g>
<g><path style="opacity:0.004" fill="#00fffe" d="M 251.5,295.5 C 252.833,296.167 252.833,296.167 251.5,295.5 Z"/></g>
<g><path style="opacity:0.129" fill="#128c8c" d="M 49.5,255.5 C 50.3288,262.655 50.8288,269.989 51,277.5C 51.3903,280.104 52.2237,282.438 53.5,284.5C 57.4185,294.086 64.0852,301.086 73.5,305.5C 80.2128,308.689 87.2128,311.023 94.5,312.5C 96.2646,313.461 98.2646,313.795 100.5,313.5C 102.476,315.011 104.809,315.844 107.5,316C 115.783,317.588 124.116,318.755 132.5,319.5C 133.873,319.343 135.207,319.51 136.5,320C 135.263,320.232 134.263,320.732 133.5,321.5C 110.331,320.034 88.3313,314.2 67.5,304C 58.5503,297.94 52.5503,289.773 49.5,279.5C 48.2979,271.484 48.2979,263.484 49.5,255.5 Z"/></g>
<g><path style="opacity:0.996" fill="#0fc1c5" d="M 156.5,281.5 C 161.076,281.568 164.576,283.568 167,287.5C 167.787,286.289 168.454,285.289 169,284.5C 171.795,285.185 174.628,285.685 177.5,286C 175.941,286.98 174.274,287.813 172.5,288.5C 173.711,289.72 173.711,290.887 172.5,292C 173.974,294.744 174.807,297.577 175,300.5C 176.085,298.343 177.251,298.176 178.5,300C 177.506,301.329 176.506,302.662 175.5,304C 176.484,305.657 177.484,307.323 178.5,309C 175.325,310.577 174.991,312.41 177.5,314.5C 176.062,316.345 176.396,317.511 178.5,318C 173.292,319.397 167.959,319.897 162.5,319.5C 161.34,318.735 160.34,317.735 159.5,316.5C 159.846,315.304 160.346,315.304 161,316.5C 161.93,314.457 162.43,312.624 162.5,311C 160.844,309.203 159.844,307.036 159.5,304.5C 160.262,304.089 161.262,303.923 162.5,304C 161.542,302.853 161.875,301.853 163.5,301C 161.408,300.047 161.075,298.714 162.5,297C 160.321,296.558 159.655,295.558 160.5,294C 158.066,292.651 157.232,290.818 158,288.5C 156.636,289.258 155.469,288.758 154.5,287C 156.192,285.599 156.859,283.766 156.5,281.5 Z"/></g>
<g><path style="opacity:0.999" fill="#24cac3" d="M 255.5,289.5 C 251.461,294.54 246.794,298.873 241.5,302.5C 236.605,304.28 231.605,306.78 226.5,310C 211.803,316.306 196.469,319.473 180.5,319.5C 184.674,318.718 189.008,318.051 193.5,317.5C 194.91,317.132 195.91,316.299 196.5,315C 195.044,314.577 194.544,313.744 195,312.5C 195.333,312.833 195.667,313.167 196,313.5C 198,312.833 200,312.167 202,311.5C 206.364,312.706 206.531,312.206 202.5,310C 203.126,309.25 203.626,308.416 204,307.5C 204.914,308.654 205.747,308.487 206.5,307C 205.062,306.781 203.729,306.281 202.5,305.5C 202.667,305.167 202.833,304.833 203,304.5C 207.343,306.031 210.843,304.531 213.5,300C 212.191,298.249 212.525,296.749 214.5,295.5C 212.755,293.541 210.589,292.208 208,291.5C 207.751,292.624 207.251,293.624 206.5,294.5C 205.494,294.062 205.494,293.396 206.5,292.5C 204.709,291.83 203.042,291.163 201.5,290.5C 210.526,290.789 219.526,291.456 228.5,292.5C 234.516,292.198 240.516,291.698 246.5,291C 247.737,290.768 248.737,290.268 249.5,289.5C 250.167,289.5 250.833,289.5 251.5,289.5C 253.035,288.646 254.368,288.646 255.5,289.5 Z"/></g>
<g><path style="opacity:0.02" fill="#339998" d="M 73.5,308.5 C 74.8333,309.167 74.8333,309.167 73.5,308.5 Z"/></g>
<g><path style="opacity:0.004" fill="#00fffe" d="M 75.5,309.5 C 76.8333,310.167 76.8333,310.167 75.5,309.5 Z"/></g>
<g><path style="opacity:0.008" fill="#1b9393" d="M 80.5,312.5 C 80.8966,311.475 81.5632,311.308 82.5,312C 81.9056,312.464 81.2389,312.631 80.5,312.5 Z"/></g>
<g><path style="opacity:0.004" fill="#00fffe" d="M 102.5,317.5 C 103.833,318.167 103.833,318.167 102.5,317.5 Z"/></g>
<g><path style="opacity:0.004" fill="#00fffe" d="M 219.5,317.5 C 220.833,318.167 220.833,318.167 219.5,317.5 Z"/></g>
<g><path style="opacity:0.004" fill="#00fffe" d="M 216.5,319.5 C 217.833,320.167 217.833,320.167 216.5,319.5 Z"/></g>
<g><path style="opacity:0.965" fill="#23b0a5" d="M 241.5,302.5 C 228.109,312.114 213.109,317.947 196.5,320C 177.431,322.501 158.097,323.001 138.5,321.5C 143.305,320.513 148.305,320.179 153.5,320.5C 162.682,320.827 171.682,320.493 180.5,319.5C 196.469,319.473 211.803,316.306 226.5,310C 231.605,306.78 236.605,304.28 241.5,302.5 Z"/></g>
<g><path style="opacity:0.004" fill="#00fffe" d="M 139.5,322.5 C 140.833,323.167 140.833,323.167 139.5,322.5 Z"/></g>
<g><path style="opacity:0.004" fill="#00fffe" d="M 160.5,327.5 C 161.833,328.167 161.833,328.167 160.5,327.5 Z"/></g>
</svg>
